<svg xmlns="http://www.w3.org/2000/svg" xmlns:xlink="http://www.w3.org/1999/xlink" width="250" zoomAndPan="magnify" viewBox="0 0 187.5 108.75" height="145" preserveAspectRatio="xMidYMid meet" version="1.2"><defs><clipPath id="f971f40980"><path d="M 142.285156 15 L 169.691406 15 L 169.691406 52 L 142.285156 52 Z M 142.285156 15 "/></clipPath></defs><g id="b2aa1037d3"><g clip-rule="nonzero" clip-path="url(#f971f40980)"><path style=" stroke:none;fill-rule:nonzero;fill:#ffffff;fill-opacity:1;" d="M 165.910156 16.21875 C 166.503906 16.855469 167.46875 18.472656 168.089844 19.625 C 168.835938 21.019531 169.699219 22.832031 169.566406 24.433594 C 169.519531 25.003906 168.769531 25.414062 168.296875 25.015625 C 167.113281 24.015625 166.386719 22.296875 165.648438 20.929688 C 164.246094 34.019531 156.199219 46.941406 143.683594 51.777344 C 142.917969 52.070312 142.355469 51.070312 143.082031 50.628906 C 153.863281 44.128906 161.6875 32.921875 162.300781 20.304688 C 161.941406 20.542969 161.582031 20.78125 161.226562 21.023438 C 159.789062 21.996094 158.414062 23.125 156.714844 23.578125 C 155.589844 23.882812 154.667969 22.453125 155.304688 21.519531 C 156.246094 20.140625 157.710938 19.277344 159.046875 18.3125 C 160.398438 17.335938 161.734375 16.320312 163.121094 15.394531 C 164.09375 14.746094 165.320312 15.585938 165.910156 16.21875 Z M 165.910156 16.21875 "/></g><g style="fill:#ffffff;fill-opacity:1;"><g transform="translate(46.201661, 63.906373)"><path style="stroke:none" d="M 12.40625 -8.5 C 12.550781 -8.40625 12.648438 -8.253906 12.703125 -8.046875 C 12.753906 -7.847656 12.71875 -7.675781 12.59375 -7.53125 C 11.394531 -5.6875 10.207031 -3.972656 9.03125 -2.390625 C 7.851562 -0.816406 6.695312 0.453125 5.5625 1.421875 C 4.425781 2.398438 3.320312 2.890625 2.25 2.890625 C 2.019531 2.890625 1.796875 2.863281 1.578125 2.8125 C 0.671875 2.613281 -0.015625 2.085938 -0.484375 1.234375 C -0.859375 0.554688 -1.078125 -0.222656 -1.140625 -1.109375 C -1.203125 -1.992188 -1.15625 -2.894531 -1 -3.8125 C -0.851562 -4.738281 -0.632812 -5.601562 -0.34375 -6.40625 C 0.15625 -7.78125 0.785156 -8.84375 1.546875 -9.59375 C 2.316406 -10.34375 3.035156 -10.601562 3.703125 -10.375 C 3.828125 -10.351562 4.007812 -10.238281 4.25 -10.03125 C 4.488281 -9.832031 4.671875 -9.492188 4.796875 -9.015625 C 4.921875 -8.546875 4.859375 -7.863281 4.609375 -6.96875 C 4.554688 -6.769531 4.445312 -6.617188 4.28125 -6.515625 C 4.125 -6.421875 3.945312 -6.394531 3.75 -6.4375 C 3.550781 -6.488281 3.398438 -6.601562 3.296875 -6.78125 C 3.191406 -6.957031 3.164062 -7.132812 3.21875 -7.3125 C 3.375 -7.90625 3.429688 -8.332031 3.390625 -8.59375 C 3.347656 -8.863281 3.304688 -9.007812 3.265625 -9.03125 C 3.160156 -9.03125 2.867188 -8.820312 2.390625 -8.40625 C 1.921875 -8 1.460938 -7.15625 1.015625 -5.875 C 0.566406 -4.707031 0.320312 -3.515625 0.28125 -2.296875 C 0.238281 -1.085938 0.40625 -0.144531 0.78125 0.53125 C 1.03125 1 1.394531 1.285156 1.875 1.390625 C 2.550781 1.535156 3.3125 1.300781 4.15625 0.6875 C 5.007812 0.0820312 5.863281 -0.734375 6.71875 -1.765625 C 7.582031 -2.804688 8.421875 -3.914062 9.234375 -5.09375 C 10.046875 -6.269531 10.765625 -7.34375 11.390625 -8.3125 C 11.492188 -8.46875 11.644531 -8.566406 11.84375 -8.609375 C 12.039062 -8.660156 12.226562 -8.625 12.40625 -8.5 Z M 12.40625 -8.5 "/></g></g><g style="fill:#ffffff;fill-opacity:1;"><g transform="translate(57.289444, 63.906373)"><path style="stroke:none" d="M 11.015625 -35.109375 C 11.335938 -34.628906 11.34375 -33.664062 11.03125 -32.21875 C 10.71875 -30.769531 10.070312 -28.976562 9.09375 -26.84375 C 8.125 -24.707031 6.828125 -22.34375 5.203125 -19.75 C 5.179688 -19.71875 5.160156 -19.691406 5.140625 -19.671875 C 4.484375 -17.023438 3.835938 -14.328125 3.203125 -11.578125 C 2.566406 -8.828125 1.960938 -6.128906 1.390625 -3.484375 C 0.816406 -0.835938 0.289062 1.648438 -0.1875 3.984375 C -0.664062 6.328125 -1.070312 8.410156 -1.40625 10.234375 C -1.738281 12.054688 -1.984375 13.515625 -2.140625 14.609375 C -2.109375 14.609375 -2.082031 14.609375 -2.0625 14.609375 C -1.863281 14.679688 -1.71875 14.804688 -1.625 14.984375 C -1.539062 15.160156 -1.535156 15.347656 -1.609375 15.546875 C -1.785156 16.023438 -1.96875 16.457031 -2.15625 16.84375 C -2.34375 17.226562 -2.597656 17.421875 -2.921875 17.421875 C -2.992188 17.421875 -3.082031 17.410156 -3.1875 17.390625 C -3.40625 17.304688 -3.566406 17.144531 -3.671875 16.90625 C -3.773438 16.675781 -3.785156 16.203125 -3.703125 15.484375 C -3.628906 14.773438 -3.46875 13.6875 -3.21875 12.21875 C -2.769531 9.519531 -2.097656 6 -1.203125 1.65625 C -0.546875 -1.394531 0.132812 -4.5 0.84375 -7.65625 C 1.550781 -10.820312 2.253906 -13.867188 2.953125 -16.796875 C 3.660156 -19.734375 4.335938 -22.398438 4.984375 -24.796875 C 5.109375 -25.273438 5.296875 -25.9375 5.546875 -26.78125 C 5.796875 -27.632812 6.082031 -28.546875 6.40625 -29.515625 C 6.726562 -30.492188 7.085938 -31.429688 7.484375 -32.328125 C 7.890625 -33.234375 8.300781 -33.976562 8.71875 -34.5625 C 9.144531 -35.15625 9.570312 -35.488281 10 -35.5625 C 10.425781 -35.632812 10.765625 -35.484375 11.015625 -35.109375 Z M 6.4375 -24.6875 C 7.644531 -26.9375 8.488281 -28.8125 8.96875 -30.3125 C 9.457031 -31.8125 9.738281 -32.898438 9.8125 -33.578125 C 9.46875 -33.078125 8.992188 -32.128906 8.390625 -30.734375 C 7.796875 -29.347656 7.144531 -27.332031 6.4375 -24.6875 Z M 6.4375 -24.6875 "/></g></g><g style="fill:#ffffff;fill-opacity:1;"><g transform="translate(62.983169, 63.906373)"><path style="stroke:none" d="M 10.984375 -8.546875 C 11.148438 -8.441406 11.253906 -8.289062 11.296875 -8.09375 C 11.335938 -7.894531 11.304688 -7.707031 11.203125 -7.53125 C 10.722656 -6.78125 10.117188 -5.941406 9.390625 -5.015625 C 8.671875 -4.097656 7.882812 -3.21875 7.03125 -2.375 C 6.1875 -1.539062 5.347656 -0.847656 4.515625 -0.296875 C 3.679688 0.253906 2.910156 0.53125 2.203125 0.53125 C 1.910156 0.53125 1.648438 0.476562 1.421875 0.375 C 0.578125 0 0.109375 -0.90625 0.015625 -2.34375 C -0.0664062 -3.78125 0.226562 -5.8125 0.90625 -8.4375 C 0.945312 -8.632812 1.054688 -8.78125 1.234375 -8.875 C 1.410156 -8.976562 1.585938 -9.003906 1.765625 -8.953125 C 1.960938 -8.898438 2.109375 -8.785156 2.203125 -8.609375 C 2.304688 -8.441406 2.332031 -8.269531 2.28125 -8.09375 C 1.882812 -6.488281 1.632812 -5.21875 1.53125 -4.28125 C 1.4375 -3.351562 1.421875 -2.648438 1.484375 -2.171875 C 1.546875 -1.703125 1.640625 -1.382812 1.765625 -1.21875 C 1.890625 -1.050781 1.960938 -0.96875 1.984375 -0.96875 C 2.304688 -0.820312 2.78125 -0.929688 3.40625 -1.296875 C 4.03125 -1.660156 4.726562 -2.195312 5.5 -2.90625 C 6.28125 -3.613281 7.0625 -4.4375 7.84375 -5.375 C 8.632812 -6.3125 9.34375 -7.289062 9.96875 -8.3125 C 10.09375 -8.488281 10.25 -8.59375 10.4375 -8.625 C 10.625 -8.664062 10.804688 -8.640625 10.984375 -8.546875 Z M 2.140625 -11.546875 C 1.640625 -11.566406 1.378906 -11.707031 1.359375 -11.96875 C 1.347656 -12.226562 1.460938 -12.492188 1.703125 -12.765625 C 1.941406 -13.046875 2.1875 -13.238281 2.4375 -13.34375 C 2.832031 -13.46875 3.125 -13.441406 3.3125 -13.265625 C 3.5 -13.085938 3.585938 -12.859375 3.578125 -12.578125 C 3.566406 -12.304688 3.441406 -12.054688 3.203125 -11.828125 C 2.960938 -11.609375 2.609375 -11.515625 2.140625 -11.546875 Z M 2.140625 -11.546875 "/></g></g><g style="fill:#ffffff;fill-opacity:1;"><g transform="translate(72.460223, 63.906373)"><path style="stroke:none" d="M 12.40625 -8.5 C 12.550781 -8.40625 12.648438 -8.253906 12.703125 -8.046875 C 12.753906 -7.847656 12.71875 -7.675781 12.59375 -7.53125 C 11.394531 -5.6875 10.207031 -3.972656 9.03125 -2.390625 C 7.851562 -0.816406 6.695312 0.453125 5.5625 1.421875 C 4.425781 2.398438 3.320312 2.890625 2.25 2.890625 C 2.019531 2.890625 1.796875 2.863281 1.578125 2.8125 C 0.671875 2.613281 -0.015625 2.085938 -0.484375 1.234375 C -0.859375 0.554688 -1.078125 -0.222656 -1.140625 -1.109375 C -1.203125 -1.992188 -1.15625 -2.894531 -1 -3.8125 C -0.851562 -4.738281 -0.632812 -5.601562 -0.34375 -6.40625 C 0.15625 -7.78125 0.785156 -8.84375 1.546875 -9.59375 C 2.316406 -10.34375 3.035156 -10.601562 3.703125 -10.375 C 3.828125 -10.351562 4.007812 -10.238281 4.25 -10.03125 C 4.488281 -9.832031 4.671875 -9.492188 4.796875 -9.015625 C 4.921875 -8.546875 4.859375 -7.863281 4.609375 -6.96875 C 4.554688 -6.769531 4.445312 -6.617188 4.28125 -6.515625 C 4.125 -6.421875 3.945312 -6.394531 3.75 -6.4375 C 3.550781 -6.488281 3.398438 -6.601562 3.296875 -6.78125 C 3.191406 -6.957031 3.164062 -7.132812 3.21875 -7.3125 C 3.375 -7.90625 3.429688 -8.332031 3.390625 -8.59375 C 3.347656 -8.863281 3.304688 -9.007812 3.265625 -9.03125 C 3.160156 -9.03125 2.867188 -8.820312 2.390625 -8.40625 C 1.921875 -8 1.460938 -7.15625 1.015625 -5.875 C 0.566406 -4.707031 0.320312 -3.515625 0.28125 -2.296875 C 0.238281 -1.085938 0.40625 -0.144531 0.78125 0.53125 C 1.03125 1 1.394531 1.285156 1.875 1.390625 C 2.550781 1.535156 3.3125 1.300781 4.15625 0.6875 C 5.007812 0.0820312 5.863281 -0.734375 6.71875 -1.765625 C 7.582031 -2.804688 8.421875 -3.914062 9.234375 -5.09375 C 10.046875 -6.269531 10.765625 -7.34375 11.390625 -8.3125 C 11.492188 -8.46875 11.644531 -8.566406 11.84375 -8.609375 C 12.039062 -8.660156 12.226562 -8.625 12.40625 -8.5 Z M 12.40625 -8.5 "/></g></g><g style="fill:#ffffff;fill-opacity:1;"><g transform="translate(83.548007, 63.906373)"><path style="stroke:none" d="M 16.15625 -8.4375 C 16.300781 -8.332031 16.398438 -8.179688 16.453125 -7.984375 C 16.503906 -7.785156 16.476562 -7.609375 16.375 -7.453125 C 15.75 -6.429688 14.941406 -5.359375 13.953125 -4.234375 C 12.972656 -3.109375 11.921875 -2.050781 10.796875 -1.0625 C 9.671875 -0.0820312 8.546875 0.71875 7.421875 1.34375 C 6.296875 1.96875 5.285156 2.28125 4.390625 2.28125 C 4.179688 2.28125 3.992188 2.269531 3.828125 2.25 C 3.421875 2.175781 2.992188 1.957031 2.546875 1.59375 C 2.097656 1.226562 1.785156 0.582031 1.609375 -0.34375 C 1.554688 -0.59375 1.617188 -0.816406 1.796875 -1.015625 C 1.972656 -1.210938 2.25 -1.472656 2.625 -1.796875 C 2.925781 -2.046875 3.253906 -2.34375 3.609375 -2.6875 C 3.972656 -3.039062 4.316406 -3.421875 4.640625 -3.828125 C 5.140625 -4.492188 5.460938 -5.109375 5.609375 -5.671875 C 5.765625 -6.234375 5.816406 -6.628906 5.765625 -6.859375 C 5.640625 -6.804688 5.390625 -6.617188 5.015625 -6.296875 C 4.640625 -5.972656 4.140625 -5.320312 3.515625 -4.34375 C 2.765625 -3.21875 2.097656 -1.960938 1.515625 -0.578125 C 0.929688 0.804688 0.390625 2.222656 -0.109375 3.671875 C -0.609375 5.117188 -1.0625 6.503906 -1.46875 7.828125 L -1.65625 8.359375 C -1.75 8.679688 -1.972656 8.84375 -2.328125 8.84375 C -2.367188 8.84375 -2.40625 8.84375 -2.4375 8.84375 C -2.863281 8.769531 -3.0625 8.519531 -3.03125 8.09375 C -3.03125 7.894531 -2.9375 7.328125 -2.75 6.390625 C -2.5625 5.453125 -2.3125 4.25 -2 2.78125 C -1.6875 1.320312 -1.335938 -0.296875 -0.953125 -2.078125 C -0.566406 -3.867188 -0.15625 -5.707031 0.28125 -7.59375 C 0.71875 -9.476562 1.140625 -11.320312 1.546875 -13.125 C 1.960938 -14.9375 2.347656 -16.609375 2.703125 -18.140625 C 2.722656 -18.179688 2.734375 -18.242188 2.734375 -18.328125 C 3.179688 -20.191406 3.53125 -21.648438 3.78125 -22.703125 C 4.351562 -25.003906 4.988281 -27.097656 5.6875 -28.984375 C 6.394531 -30.867188 7.09375 -32.378906 7.78125 -33.515625 C 8.46875 -34.648438 9.082031 -35.28125 9.625 -35.40625 C 10.03125 -35.476562 10.359375 -35.34375 10.609375 -35 C 10.953125 -34.519531 10.914062 -33.492188 10.5 -31.921875 C 10.09375 -30.347656 9.335938 -28.347656 8.234375 -25.921875 C 7.140625 -23.503906 5.769531 -20.796875 4.125 -17.796875 C 3.75 -16.242188 3.347656 -14.550781 2.921875 -12.71875 C 2.492188 -10.882812 2.066406 -9.015625 1.640625 -7.109375 C 1.222656 -5.210938 0.828125 -3.40625 0.453125 -1.6875 C 0.722656 -2.28125 1.015625 -2.867188 1.328125 -3.453125 C 1.640625 -4.046875 1.957031 -4.609375 2.28125 -5.140625 C 3.707031 -7.335938 4.929688 -8.394531 5.953125 -8.3125 C 6.484375 -8.269531 6.847656 -8 7.046875 -7.5 C 7.296875 -6.96875 7.296875 -6.269531 7.046875 -5.40625 C 6.796875 -4.550781 6.367188 -3.722656 5.765625 -2.921875 C 5.421875 -2.472656 5.046875 -2.0625 4.640625 -1.6875 C 4.242188 -1.3125 3.882812 -0.988281 3.5625 -0.71875 C 3.488281 -0.632812 3.40625 -0.554688 3.3125 -0.484375 C 3.226562 -0.410156 3.160156 -0.347656 3.109375 -0.296875 C 3.210938 0.128906 3.363281 0.414062 3.5625 0.5625 C 3.757812 0.707031 3.929688 0.796875 4.078125 0.828125 C 4.628906 0.921875 5.359375 0.75 6.265625 0.3125 C 7.179688 -0.125 8.171875 -0.765625 9.234375 -1.609375 C 10.296875 -2.460938 11.347656 -3.457031 12.390625 -4.59375 C 13.441406 -5.726562 14.359375 -6.929688 15.140625 -8.203125 C 15.234375 -8.378906 15.378906 -8.484375 15.578125 -8.515625 C 15.785156 -8.554688 15.976562 -8.53125 16.15625 -8.4375 Z M 9.328125 -33.3125 C 8.898438 -32.6875 8.332031 -31.578125 7.625 -29.984375 C 6.914062 -28.398438 6.210938 -26.25 5.515625 -23.53125 C 6.753906 -26.050781 7.664062 -28.125 8.25 -29.75 C 8.84375 -31.375 9.203125 -32.5625 9.328125 -33.3125 Z M 9.328125 -33.3125 "/></g></g><g style="fill:#ffffff;fill-opacity:1;"><g transform="translate(98.156914, 63.906373)"><path style="stroke:none" d=""/></g></g><g style="fill:#ffffff;fill-opacity:1;"><g transform="translate(109.656742, 63.906373)"><path style="stroke:none" d="M 21.125 -8.390625 C 21.28125 -8.265625 21.363281 -8.101562 21.375 -7.90625 C 21.382812 -7.707031 21.328125 -7.53125 21.203125 -7.375 C 18.035156 -3.65625 15.523438 -2.144531 13.671875 -2.84375 C 12.347656 -3.34375 11.640625 -4.929688 11.546875 -7.609375 C 11.265625 -7.109375 10.96875 -6.539062 10.65625 -5.90625 C 10.34375 -5.269531 10.085938 -4.75 9.890625 -4.34375 C 9.742188 -3.96875 9.59375 -3.628906 9.4375 -3.328125 C 9.289062 -3.035156 9.15625 -2.785156 9.03125 -2.578125 C 8.957031 -2.429688 8.828125 -2.210938 8.640625 -1.921875 C 8.453125 -1.640625 8.210938 -1.390625 7.921875 -1.171875 C 7.640625 -0.960938 7.3125 -0.910156 6.9375 -1.015625 C 6.476562 -1.140625 6.132812 -1.46875 5.90625 -2 C 5.6875 -2.539062 5.550781 -3.128906 5.5 -3.765625 C 5.457031 -4.398438 5.4375 -4.921875 5.4375 -5.328125 C 5.4375 -5.648438 5.4375 -5.957031 5.4375 -6.25 C 5.4375 -6.550781 5.445312 -6.828125 5.46875 -7.078125 C 4.59375 -5.828125 3.753906 -4.535156 2.953125 -3.203125 C 2.160156 -1.867188 1.3125 -0.335938 0.40625 1.390625 C 0.113281 1.960938 -0.207031 2.25 -0.5625 2.25 C -0.6875 2.25 -0.800781 2.210938 -0.90625 2.140625 C -1.03125 2.085938 -1.140625 2.003906 -1.234375 1.890625 C -1.335938 1.773438 -1.394531 1.550781 -1.40625 1.21875 C -1.414062 0.882812 -1.363281 0.367188 -1.25 -0.328125 C -1.144531 -1.035156 -0.925781 -2.015625 -0.59375 -3.265625 C -0.21875 -4.785156 0.222656 -6.296875 0.734375 -7.796875 C 1.242188 -9.296875 1.757812 -10.644531 2.28125 -11.84375 C 2.351562 -12.039062 2.484375 -12.175781 2.671875 -12.25 C 2.859375 -12.320312 3.039062 -12.3125 3.21875 -12.21875 C 3.414062 -12.144531 3.546875 -12.015625 3.609375 -11.828125 C 3.671875 -11.640625 3.664062 -11.457031 3.59375 -11.28125 C 2.914062 -9.707031 2.304688 -8.0625 1.765625 -6.34375 C 1.234375 -4.632812 0.820312 -3.144531 0.53125 -1.875 C 1.300781 -3.25 2.0625 -4.53125 2.8125 -5.71875 C 3.5625 -6.90625 4.347656 -8.0625 5.171875 -9.1875 C 5.242188 -9.28125 5.375 -9.414062 5.5625 -9.59375 C 5.75 -9.769531 6.003906 -9.804688 6.328125 -9.703125 C 6.648438 -9.578125 6.832031 -9.335938 6.875 -8.984375 C 6.914062 -8.640625 6.921875 -8.054688 6.890625 -7.234375 C 6.890625 -6.953125 6.882812 -6.648438 6.875 -6.328125 C 6.863281 -6.003906 6.859375 -5.671875 6.859375 -5.328125 C 6.859375 -4.578125 6.90625 -3.960938 7 -3.484375 C 7.101562 -3.003906 7.191406 -2.679688 7.265625 -2.515625 C 7.316406 -2.554688 7.382812 -2.640625 7.46875 -2.765625 C 7.5625 -2.890625 7.671875 -3.054688 7.796875 -3.265625 C 7.890625 -3.429688 8.003906 -3.664062 8.140625 -3.96875 C 8.285156 -4.269531 8.445312 -4.597656 8.625 -4.953125 C 9.269531 -6.347656 9.796875 -7.421875 10.203125 -8.171875 C 10.617188 -8.921875 10.976562 -9.429688 11.28125 -9.703125 C 11.582031 -9.972656 11.894531 -10.070312 12.21875 -10 C 12.613281 -9.90625 12.84375 -9.660156 12.90625 -9.265625 C 12.96875 -8.878906 13 -8.578125 13 -8.359375 C 12.976562 -7.179688 13.070312 -6.226562 13.28125 -5.5 C 13.488281 -4.78125 13.796875 -4.347656 14.203125 -4.203125 C 14.648438 -4.023438 15.363281 -4.222656 16.34375 -4.796875 C 17.332031 -5.367188 18.59375 -6.539062 20.125 -8.3125 C 20.25 -8.46875 20.410156 -8.550781 20.609375 -8.5625 C 20.804688 -8.570312 20.976562 -8.515625 21.125 -8.390625 Z M 21.125 -8.390625 "/></g></g><g style="fill:#ffffff;fill-opacity:1;"><g transform="translate(129.172734, 63.906373)"><path style="stroke:none" d="M 12.671875 -8.359375 C 12.835938 -8.253906 12.929688 -8.101562 12.953125 -7.90625 C 12.984375 -7.707031 12.953125 -7.53125 12.859375 -7.375 C 11.378906 -5.332031 10.023438 -3.640625 8.796875 -2.296875 C 7.578125 -0.960938 6.359375 0.140625 5.140625 1.015625 C 4.210938 1.660156 3.296875 1.984375 2.390625 1.984375 C 1.691406 1.984375 1.082031 1.796875 0.5625 1.421875 C 0.207031 1.171875 -0.132812 0.726562 -0.46875 0.09375 C -0.800781 -0.539062 -0.976562 -1.460938 -1 -2.671875 C -1.03125 -3.890625 -0.734375 -5.484375 -0.109375 -7.453125 C -0.109375 -7.453125 -0.109375 -7.46875 -0.109375 -7.5 C 0.640625 -9.894531 1.519531 -11.722656 2.53125 -12.984375 C 3.539062 -14.242188 4.410156 -14.882812 5.140625 -14.90625 C 5.710938 -14.9375 6.082031 -14.6875 6.25 -14.15625 C 6.53125 -13.4375 6.207031 -12.40625 5.28125 -11.0625 C 4.351562 -9.726562 2.992188 -8.3125 1.203125 -6.8125 C 0.648438 -5.070312 0.382812 -3.707031 0.40625 -2.71875 C 0.4375 -1.726562 0.578125 -1.015625 0.828125 -0.578125 C 1.078125 -0.140625 1.273438 0.140625 1.421875 0.265625 C 2.171875 0.816406 3.132812 0.664062 4.3125 -0.1875 C 5.457031 -0.988281 6.613281 -2.03125 7.78125 -3.3125 C 8.957031 -4.601562 10.25 -6.234375 11.65625 -8.203125 C 11.78125 -8.359375 11.941406 -8.453125 12.140625 -8.484375 C 12.335938 -8.523438 12.515625 -8.484375 12.671875 -8.359375 Z M 4.875 -13.34375 C 4.59375 -13.164062 4.210938 -12.796875 3.734375 -12.234375 C 3.265625 -11.671875 2.78125 -10.851562 2.28125 -9.78125 C 3.1875 -10.65625 3.828125 -11.394531 4.203125 -12 C 4.578125 -12.613281 4.800781 -13.0625 4.875 -13.34375 Z M 4.875 -13.34375 "/></g></g></g></svg>