<svg xmlns="http://www.w3.org/2000/svg" xmlns:xlink="http://www.w3.org/1999/xlink" width="320" zoomAndPan="magnify" viewBox="0 0 240 239.999995" height="320" preserveAspectRatio="xMidYMid meet" version="1.2"><defs><clipPath id="2925a1153e"><path d="M 101.128906 96.242188 L 138.871094 96.242188 L 138.871094 143.863281 L 101.128906 143.863281 Z M 101.128906 96.242188 "/></clipPath><clipPath id="7673085724"><path d="M 120 96.242188 C 125.003906 96.242188 129.804688 98.230469 133.34375 101.769531 C 136.882812 105.308594 138.871094 110.109375 138.871094 115.113281 L 138.871094 124.886719 C 138.871094 129.890625 136.882812 134.691406 133.34375 138.230469 C 129.804688 141.769531 125.003906 143.757812 120 143.757812 C 114.996094 143.757812 110.195312 141.769531 106.65625 138.230469 C 103.117188 134.691406 101.128906 129.890625 101.128906 124.886719 L 101.128906 115.113281 C 101.128906 110.109375 103.117188 105.308594 106.65625 101.769531 C 110.195312 98.230469 114.996094 96.242188 120 96.242188 Z M 120 96.242188 "/></clipPath></defs><g id="0c940c4940"><path style=" stroke:none;fill-rule:nonzero;fill:#ffd815;fill-opacity:1;" d="M 92.960938 175.65625 C 77.90625 179.199219 75.03125 182.070312 71.492188 197.128906 C 67.949219 182.070312 65.078125 179.199219 50.019531 175.65625 C 65.078125 172.117188 67.949219 169.246094 71.492188 154.1875 C 75.03125 169.246094 77.902344 172.117188 92.960938 175.65625 Z M 92.960938 175.65625 "/><path style=" stroke:none;fill-rule:nonzero;fill:#ffd815;fill-opacity:1;" d="M 239.972656 119.988281 C 129.015625 124.972656 124.972656 129.019531 119.988281 239.972656 C 115 129.019531 110.957031 124.972656 0 119.988281 C 110.957031 115 115 110.957031 119.988281 0 C 124.972656 110.957031 129.019531 115 239.972656 119.988281 Z M 239.972656 119.988281 "/><path style=" stroke:none;fill-rule:nonzero;fill:#ffd815;fill-opacity:1;" d="M 92.894531 56.613281 C 68.113281 57.726562 67.210938 58.632812 66.097656 83.410156 C 64.984375 58.632812 64.082031 57.726562 39.300781 56.613281 C 64.082031 55.5 64.984375 54.597656 66.097656 29.816406 C 67.210938 54.597656 68.117188 55.5 92.894531 56.613281 Z M 92.894531 56.613281 "/><path style=" stroke:none;fill-rule:nonzero;fill:#ffd815;fill-opacity:1;" d="M 227.445312 54.34375 C 191.054688 55.980469 189.730469 57.304688 188.09375 93.695312 C 186.457031 57.304688 185.132812 55.980469 148.742188 54.34375 C 185.132812 52.707031 186.457031 51.382812 188.09375 14.992188 C 189.730469 51.382812 191.054688 52.707031 227.445312 54.34375 Z M 227.445312 54.34375 "/><path style=" stroke:none;fill-rule:nonzero;fill:#ffd815;fill-opacity:1;" d="M 227.445312 27.546875 C 217.53125 27.992188 217.171875 28.355469 216.726562 38.265625 C 216.28125 28.355469 215.917969 27.992188 206.007812 27.546875 C 215.917969 27.101562 216.28125 26.742188 216.726562 16.828125 C 217.171875 26.742188 217.53125 27.101562 227.445312 27.546875 Z M 227.445312 27.546875 "/><path style=" stroke:none;fill-rule:nonzero;fill:#ffd815;fill-opacity:1;" d="M 165.625 14.996094 C 155.714844 15.441406 155.351562 15.800781 154.90625 25.710938 C 154.460938 15.800781 154.101562 15.441406 144.1875 14.996094 C 154.101562 14.550781 154.460938 14.1875 154.90625 4.277344 C 155.351562 14.1875 155.714844 14.546875 165.625 14.996094 Z M 165.625 14.996094 "/><g clip-rule="nonzero" clip-path="url(#2925a1153e)"><g clip-rule="nonzero" clip-path="url(#7673085724)"><path style=" stroke:none;fill-rule:nonzero;fill:#ffd815;fill-opacity:1;" d="M 101.128906 96.242188 L 138.871094 96.242188 L 138.871094 143.714844 L 101.128906 143.714844 Z M 101.128906 96.242188 "/></g></g></g></svg>