<svg xmlns="http://www.w3.org/2000/svg" xmlns:xlink="http://www.w3.org/1999/xlink" width="320" zoomAndPan="magnify" viewBox="0 0 240 239.999995" height="320" preserveAspectRatio="xMidYMid meet" version="1.2"><defs><clipPath id="b3dacf4b99"><path d="M 92 19.902344 L 169.925781 19.902344 L 169.925781 31.902344 L 92 31.902344 Z M 92 19.902344 "/></clipPath></defs><g id="eab37a0553"><path style=" stroke:none;fill-rule:nonzero;fill:#fcfcfd;fill-opacity:1;" d="M 60 0 C 55.269531 0 51.429688 3.839844 51.429688 8.570312 L 51.429688 17.144531 L 34.285156 17.144531 C 15.445312 17.144531 0 32.589844 0 51.429688 L 0 205.714844 C 0 224.554688 15.445312 240 34.285156 240 L 205.714844 240 C 224.554688 240 240 224.554688 240 205.714844 L 240 51.429688 C 240 32.589844 224.554688 17.144531 205.714844 17.144531 L 188.570312 17.144531 L 188.570312 8.570312 C 188.570312 3.839844 184.730469 0 180 0 C 175.269531 0 171.429688 3.839844 171.429688 8.570312 L 171.429688 17.144531 L 128.570312 17.144531 L 128.570312 8.570312 C 128.570312 3.839844 124.730469 0 120 0 C 115.269531 0 111.429688 3.839844 111.429688 8.570312 L 111.429688 17.144531 L 68.570312 17.144531 L 68.570312 8.570312 C 68.570312 3.839844 64.730469 0 60 0 Z M 34.285156 34.285156 L 51.429688 34.285156 L 51.429688 42.855469 C 51.429688 47.589844 55.269531 51.429688 60 51.429688 C 64.730469 51.429688 68.570312 47.589844 68.570312 42.855469 L 68.570312 34.285156 L 111.429688 34.285156 L 111.429688 42.855469 C 111.429688 47.589844 115.269531 51.429688 120 51.429688 C 124.730469 51.429688 128.570312 47.589844 128.570312 42.855469 L 128.570312 34.285156 L 171.429688 34.285156 L 171.429688 42.855469 C 171.429688 47.589844 175.269531 51.429688 180 51.429688 C 184.730469 51.429688 188.570312 47.589844 188.570312 42.855469 L 188.570312 34.285156 L 205.714844 34.285156 C 215.355469 34.285156 222.855469 41.785156 222.855469 51.429688 L 222.855469 68.570312 L 17.144531 68.570312 L 17.144531 51.429688 C 17.144531 41.785156 24.644531 34.285156 34.285156 34.285156 Z M 17.144531 85.714844 L 222.855469 85.714844 L 222.855469 205.714844 C 222.855469 215.355469 215.355469 222.855469 205.714844 222.855469 L 34.285156 222.855469 C 24.644531 222.855469 17.144531 215.355469 17.144531 205.714844 Z M 17.144531 85.714844 "/><path style=" stroke:none;fill-rule:nonzero;fill:#fcfcfd;fill-opacity:1;" d="M 156.339844 114.417969 L 110.9375 167.410156 L 83.214844 139.644531 C 79.867188 136.292969 74.417969 136.292969 71.070312 139.644531 C 67.722656 142.992188 67.722656 148.4375 71.070312 151.785156 L 105.355469 186.070312 C 108.882812 189.597656 114.6875 189.375 117.945312 185.582031 L 169.375 125.582031 C 172.457031 121.964844 172.007812 116.5625 168.4375 113.480469 C 164.644531 110.445312 159.910156 110.667969 156.339844 114.417969 Z M 156.339844 114.417969 "/><g clip-rule="nonzero" clip-path="url(#b3dacf4b99)"><path style=" stroke:none;fill-rule:nonzero;fill:#fcfcfd;fill-opacity:1;" d="M 168.398438 31.902344 L 93.457031 31.902344 C 92.832031 31.902344 92.328125 31.402344 92.328125 30.789062 L 92.328125 21.011719 C 92.328125 20.398438 92.832031 19.902344 93.457031 19.902344 L 168.398438 19.902344 C 169.019531 19.902344 169.527344 20.398438 169.527344 21.011719 L 169.527344 30.789062 C 169.527344 31.402344 169.019531 31.902344 168.398438 31.902344 Z M 168.398438 31.902344 "/></g></g></svg>