<svg xmlns="http://www.w3.org/2000/svg" xmlns:xlink="http://www.w3.org/1999/xlink" width="320" zoomAndPan="magnify" viewBox="0 0 240 239.999995" height="320" preserveAspectRatio="xMidYMid meet" version="1.2"><defs><clipPath id="3e860a6958"><path d="M 169.125 70.21875 L 172.875 70.21875 L 172.875 78.628906 L 169.125 78.628906 Z M 169.125 70.21875 "/></clipPath></defs><g id="95d118d5f6"><path style=" stroke:none;fill-rule:nonzero;fill:#fcfcfd;fill-opacity:1;" d="M 120 240 C 53.832031 240 0 186.167969 0 120 C 0 53.832031 53.832031 0 120 0 C 186.167969 0 240 53.832031 240 120 C 240 186.167969 186.167969 240 120 240 Z M 120 11.429688 C 60.132812 11.429688 11.429688 60.132812 11.429688 120 C 11.429688 179.867188 60.132812 228.570312 120 228.570312 C 179.867188 228.570312 228.570312 179.867188 228.570312 120 C 228.570312 60.132812 179.867188 11.429688 120 11.429688 Z M 120 11.429688 "/><path style=" stroke:none;fill-rule:nonzero;fill:#fcfcfd;fill-opacity:1;" d="M 184.941406 69.730469 L 55.058594 69.730469 C 50.304688 69.730469 46.4375 73.582031 46.4375 78.3125 L 46.4375 157.074219 C 46.4375 164.351562 52.382812 170.269531 59.6875 170.269531 L 180.304688 170.269531 C 187.609375 170.269531 193.554688 164.351562 193.558594 157.074219 L 193.558594 78.3125 C 193.558594 73.578125 189.695312 69.730469 184.941406 69.730469 Z M 123.71875 127.964844 C 121.488281 129.84375 118.496094 129.84375 116.273438 127.964844 L 59.90625 80.527344 L 180.089844 80.527344 Z M 89.167969 119.289062 L 57.28125 151.113281 L 57.28125 92.457031 Z M 97.476562 126.285156 L 109.273438 136.210938 C 115.339844 141.328125 124.632812 141.332031 130.722656 136.210938 L 141.890625 126.816406 L 174.605469 159.46875 L 64.230469 159.46875 Z M 150.203125 119.820312 L 182.714844 92.457031 L 182.714844 152.273438 Z M 150.203125 119.820312 "/><g clip-rule="nonzero" clip-path="url(#3e860a6958)"><path style=" stroke:none;fill-rule:nonzero;fill:#fcfcfd;fill-opacity:1;" d="M 169.125 70.21875 L 172.875 70.21875 L 172.875 78.625 L 169.125 78.625 Z M 169.125 70.21875 "/></g></g></svg>