<svg xmlns="http://www.w3.org/2000/svg" xmlns:xlink="http://www.w3.org/1999/xlink" width="320" zoomAndPan="magnify" viewBox="0 0 240 239.999995" height="320" preserveAspectRatio="xMidYMid meet" version="1.2"><defs><clipPath id="34c9506244"><path d="M 120 91.34375 L 134.488281 91.34375 L 134.488281 99.757812 L 120 99.757812 Z M 120 91.34375 "/></clipPath></defs><g id="2a6eda3c08"><path style=" stroke:none;fill-rule:nonzero;fill:#fcfcfd;fill-opacity:1;" d="M 120 0 C 53.726562 0 0 53.726562 0 120 C 0 186.273438 53.726562 240 120 240 C 186.273438 240 240 186.273438 240 120 C 240 53.726562 186.273438 0 120 0 Z M 120 230.910156 C 58.746094 230.910156 9.089844 181.253906 9.089844 120 C 9.089844 58.746094 58.746094 9.089844 120 9.089844 C 181.253906 9.089844 230.910156 58.746094 230.910156 120 C 230.910156 181.253906 181.253906 230.910156 120 230.910156 Z M 120 230.910156 "/><path style=" stroke:none;fill-rule:nonzero;fill:#fcfcfd;fill-opacity:1;" d="M 105.917969 178.820312 C 102.90625 179.109375 100.503906 179.441406 98.085938 179.554688 C 84.394531 180.203125 74.257812 174.804688 68.113281 162.21875 C 66.152344 158.207031 63.648438 154.425781 61.039062 150.792969 C 59.46875 148.613281 57.273438 146.859375 55.246094 145.042969 L 55.21875 145.023438 C 53.964844 143.917969 54.519531 141.851562 56.167969 141.578125 C 58.101562 141.25 59.90625 141.601562 61.664062 142.046875 C 67.167969 143.449219 70.703125 147.351562 73.519531 152.019531 C 79.886719 162.578125 90.851562 166.980469 102.707031 163.835938 C 104.722656 163.300781 105.609375 162.433594 106.046875 160.238281 C 106.558594 157.679688 107.253906 155.152344 108 152.582031 C 108.109375 152.203125 108.179688 151.816406 108.210938 151.421875 C 108.242188 151.03125 108.234375 150.636719 108.183594 150.246094 C 108.136719 149.855469 108.050781 149.472656 107.921875 149.097656 C 107.796875 148.722656 107.632812 148.367188 107.433594 148.027344 C 107.238281 147.683594 107.003906 147.367188 106.742188 147.074219 C 106.476562 146.78125 106.1875 146.515625 105.871094 146.28125 C 105.554688 146.046875 105.214844 145.847656 104.859375 145.679688 C 104.5 145.511719 104.128906 145.386719 103.746094 145.292969 L 103.679688 145.277344 C 91.375 142.335938 80.746094 136.855469 73.898438 125.609375 C 70.238281 119.597656 68.425781 112.976562 68.519531 106.078125 C 68.625 98.25 69.316406 90.40625 70.214844 82.621094 C 70.851562 77.140625 73.386719 72.285156 77.328125 68.34375 C 78.703125 66.972656 78.820312 65.820312 78.15625 64.039062 C 75.441406 56.757812 75.914062 49.460938 78.324219 42.160156 C 79.003906 40.101562 79.964844 39.808594 81.9375 40.429688 C 88.035156 42.347656 92.582031 46.3125 96.578125 51.0625 L 96.617188 51.113281 C 97.121094 51.714844 97.699219 52.234375 98.359375 52.664062 C 99.015625 53.089844 99.71875 53.414062 100.472656 53.632812 C 101.226562 53.851562 101.996094 53.953125 102.78125 53.941406 C 103.566406 53.929688 104.332031 53.800781 105.078125 53.558594 C 117.730469 49.410156 136.921875 49.355469 148.855469 53.460938 C 149.605469 53.714844 150.375 53.851562 151.167969 53.875 C 151.957031 53.894531 152.734375 53.796875 153.496094 53.585938 C 154.257812 53.371094 154.972656 53.046875 155.636719 52.617188 C 156.300781 52.1875 156.886719 51.667969 157.394531 51.058594 L 157.433594 51.011719 C 161.4375 46.261719 166.003906 42.328125 172.097656 40.402344 C 174.140625 39.757812 175.011719 40.25 175.65625 42.238281 C 178.035156 49.539062 178.441406 56.792969 175.867188 64.152344 C 175.507812 65.1875 175.519531 66.988281 176.164062 67.644531 C 181.628906 73.183594 184.019531 80.0625 184.625 87.515625 C 185.210938 94.714844 185.847656 102.039062 185.179688 109.1875 C 183.441406 127.78125 172.132812 138.609375 154.941406 143.992188 C 153.472656 144.453125 151.976562 144.839844 150.453125 145.199219 C 150.054688 145.292969 149.671875 145.429688 149.304688 145.601562 C 148.933594 145.777344 148.589844 145.988281 148.265625 146.234375 C 147.9375 146.480469 147.644531 146.757812 147.378906 147.066406 C 147.113281 147.375 146.878906 147.707031 146.683594 148.066406 C 146.488281 148.421875 146.332031 148.796875 146.214844 149.1875 C 146.09375 149.578125 146.019531 149.976562 145.984375 150.382812 C 145.953125 150.789062 145.960938 151.195312 146.011719 151.597656 C 146.0625 152.003906 146.152344 152.398438 146.289062 152.78125 C 148.628906 159.570312 148.273438 166.820312 148.234375 174.023438 C 148.226562 175.679688 148.222656 177.335938 148.21875 178.992188 C 148.21875 179.675781 148.183594 180.359375 148.113281 181.039062 C 148.046875 181.71875 147.945312 182.394531 147.808594 183.066406 C 147.675781 183.738281 147.507812 184.398438 147.308594 185.054688 C 147.105469 185.707031 146.875 186.351562 146.613281 186.984375 C 146.351562 187.613281 146.058594 188.230469 145.734375 188.835938 C 145.410156 189.4375 145.058594 190.023438 144.679688 190.589844 C 144.296875 191.160156 143.890625 191.707031 143.453125 192.234375 C 143.019531 192.765625 142.5625 193.269531 142.078125 193.753906 C 141.59375 194.234375 141.085938 194.695312 140.554688 195.128906 C 140.027344 195.5625 139.476562 195.96875 138.910156 196.347656 C 138.339844 196.726562 137.753906 197.078125 137.148438 197.398438 C 136.546875 197.722656 135.929688 198.011719 135.296875 198.273438 C 134.664062 198.535156 134.019531 198.765625 133.367188 198.964844 C 132.710938 199.164062 132.046875 199.328125 131.378906 199.460938 C 130.707031 199.59375 130.03125 199.695312 129.351562 199.761719 C 128.667969 199.828125 127.988281 199.863281 127.300781 199.863281 L 126.832031 199.863281 C 126.144531 199.863281 125.464844 199.828125 124.78125 199.761719 C 124.097656 199.695312 123.421875 199.59375 122.75 199.460938 C 122.078125 199.328125 121.414062 199.160156 120.757812 198.960938 C 120.105469 198.761719 119.460938 198.53125 118.828125 198.269531 C 118.195312 198.007812 117.574219 197.714844 116.972656 197.390625 C 116.367188 197.070312 115.78125 196.71875 115.210938 196.335938 C 114.640625 195.957031 114.09375 195.546875 113.5625 195.113281 C 113.03125 194.679688 112.527344 194.21875 112.042969 193.734375 C 111.558594 193.25 111.097656 192.746094 110.664062 192.214844 C 110.226562 191.683594 109.820312 191.136719 109.441406 190.566406 C 109.058594 189.996094 108.707031 189.410156 108.386719 188.804688 C 108.0625 188.203125 107.769531 187.582031 107.507812 186.949219 C 107.246094 186.316406 107.015625 185.671875 106.816406 185.015625 C 106.617188 184.363281 106.449219 183.699219 106.316406 183.027344 C 106.183594 182.355469 106.082031 181.675781 106.015625 180.996094 C 105.949219 180.3125 105.914062 179.628906 105.914062 178.945312 Z M 105.917969 178.820312 "/><g clip-rule="nonzero" clip-path="url(#34c9506244)"><path style=" stroke:none;fill-rule:nonzero;fill:#fcfcfd;fill-opacity:1;" d="M 120 91.34375 L 134.492188 91.34375 L 134.492188 99.757812 L 120 99.757812 Z M 120 91.34375 "/></g></g></svg>