<svg xmlns="http://www.w3.org/2000/svg" xmlns:xlink="http://www.w3.org/1999/xlink" width="320" zoomAndPan="magnify" viewBox="0 0 240 239.999995" height="320" preserveAspectRatio="xMidYMid meet" version="1.2"><defs><clipPath id="4701fe7b72"><path d="M 44.207031 107.957031 L 92 107.957031 L 92 119.957031 L 44.207031 119.957031 Z M 44.207031 107.957031 "/></clipPath></defs><g id="19057e92f0"><path style=" stroke:none;fill-rule:nonzero;fill:#f03c2e;fill-opacity:1;" d="M 235.46875 109.3125 L 130.6875 4.53125 C 129.96875 3.8125 129.191406 3.171875 128.347656 2.609375 C 127.503906 2.042969 126.613281 1.566406 125.675781 1.179688 C 124.738281 0.789062 123.769531 0.496094 122.773438 0.300781 C 121.78125 0.101562 120.773438 0.00390625 119.761719 0.00390625 C 118.746094 0.00390625 117.738281 0.101562 116.746094 0.300781 C 115.75 0.496094 114.785156 0.789062 113.847656 1.179688 C 112.910156 1.566406 112.019531 2.042969 111.175781 2.609375 C 110.332031 3.171875 109.550781 3.8125 108.832031 4.53125 L 87.082031 26.28125 L 114.683594 53.878906 C 121.101562 51.628906 128.453125 53.167969 133.566406 58.28125 C 134.171875 58.890625 134.734375 59.535156 135.25 60.21875 C 135.765625 60.90625 136.230469 61.625 136.644531 62.375 C 137.058594 63.125 137.417969 63.898438 137.726562 64.699219 C 138.03125 65.5 138.28125 66.320312 138.472656 67.15625 C 138.664062 67.992188 138.796875 68.835938 138.871094 69.691406 C 138.945312 70.546875 138.957031 71.398438 138.910156 72.257812 C 138.863281 73.113281 138.757812 73.960938 138.59375 74.800781 C 138.429688 75.644531 138.207031 76.46875 137.925781 77.28125 L 164.527344 103.882812 C 170.960938 101.664062 178.386719 103.09375 183.523438 108.246094 C 183.953125 108.671875 184.355469 109.121094 184.738281 109.585938 C 185.121094 110.050781 185.480469 110.535156 185.8125 111.035156 C 186.148438 111.535156 186.457031 112.050781 186.742188 112.582031 C 187.027344 113.113281 187.285156 113.660156 187.515625 114.214844 C 187.746094 114.773438 187.949219 115.339844 188.125 115.914062 C 188.300781 116.492188 188.445312 117.078125 188.5625 117.667969 C 188.679688 118.257812 188.769531 118.855469 188.828125 119.453125 C 188.886719 120.054688 188.917969 120.65625 188.917969 121.257812 C 188.917969 121.859375 188.886719 122.460938 188.828125 123.0625 C 188.769531 123.660156 188.679688 124.253906 188.5625 124.847656 C 188.445312 125.4375 188.300781 126.023438 188.125 126.597656 C 187.949219 127.175781 187.746094 127.742188 187.515625 128.296875 C 187.285156 128.855469 187.027344 129.398438 186.746094 129.929688 C 186.460938 130.460938 186.152344 130.976562 185.816406 131.480469 C 185.480469 131.980469 185.121094 132.464844 184.742188 132.929688 C 184.359375 133.394531 183.953125 133.839844 183.527344 134.269531 C 183.101562 134.695312 182.65625 135.097656 182.191406 135.480469 C 181.722656 135.863281 181.238281 136.222656 180.738281 136.554688 C 180.238281 136.890625 179.722656 137.199219 179.191406 137.484375 C 178.660156 137.765625 178.113281 138.023438 177.558594 138.253906 C 177 138.484375 176.433594 138.6875 175.855469 138.863281 C 175.28125 139.039062 174.695312 139.183594 174.105469 139.300781 C 173.515625 139.417969 172.917969 139.507812 172.320312 139.566406 C 171.71875 139.625 171.117188 139.652344 170.515625 139.652344 C 169.914062 139.652344 169.3125 139.625 168.710938 139.5625 C 168.113281 139.503906 167.515625 139.417969 166.925781 139.296875 C 166.335938 139.179688 165.75 139.035156 165.175781 138.859375 C 164.597656 138.683594 164.03125 138.480469 163.476562 138.25 C 162.917969 138.019531 162.375 137.761719 161.84375 137.476562 C 161.3125 137.191406 160.796875 136.882812 160.292969 136.546875 C 159.792969 136.210938 159.308594 135.855469 158.84375 135.472656 C 158.378906 135.089844 157.933594 134.683594 157.507812 134.257812 C 152.109375 128.859375 150.773438 120.90625 153.503906 114.253906 L 128.691406 89.445312 L 128.691406 154.734375 C 130.503906 155.628906 132.128906 156.789062 133.566406 158.210938 C 133.992188 158.636719 134.398438 159.085938 134.78125 159.550781 C 135.160156 160.015625 135.519531 160.5 135.855469 161 C 136.1875 161.5 136.5 162.015625 136.78125 162.546875 C 137.066406 163.078125 137.324219 163.621094 137.554688 164.179688 C 137.785156 164.734375 137.988281 165.300781 138.164062 165.878906 C 138.335938 166.453125 138.484375 167.039062 138.601562 167.628906 C 138.71875 168.21875 138.808594 168.816406 138.867188 169.414062 C 138.925781 170.015625 138.953125 170.613281 138.953125 171.21875 C 138.953125 171.820312 138.925781 172.421875 138.867188 173.019531 C 138.808594 173.621094 138.71875 174.214844 138.601562 174.804688 C 138.484375 175.394531 138.335938 175.980469 138.164062 176.554688 C 137.988281 177.132812 137.785156 177.699219 137.554688 178.253906 C 137.324219 178.8125 137.066406 179.355469 136.78125 179.886719 C 136.5 180.417969 136.1875 180.933594 135.855469 181.433594 C 135.519531 181.9375 135.160156 182.417969 134.78125 182.886719 C 134.398438 183.351562 133.992188 183.796875 133.566406 184.222656 C 133.140625 184.648438 132.695312 185.050781 132.230469 185.433594 C 131.765625 185.816406 131.28125 186.175781 130.78125 186.507812 C 130.28125 186.84375 129.761719 187.152344 129.230469 187.4375 C 128.699219 187.722656 128.15625 187.980469 127.601562 188.210938 C 127.042969 188.441406 126.476562 188.640625 125.902344 188.816406 C 125.324219 188.992188 124.742188 189.136719 124.152344 189.257812 C 123.558594 189.375 122.964844 189.460938 122.363281 189.519531 C 121.765625 189.578125 121.164062 189.609375 120.5625 189.609375 C 119.960938 189.609375 119.359375 189.578125 118.761719 189.519531 C 118.160156 189.460938 117.566406 189.375 116.972656 189.257812 C 116.382812 189.136719 115.800781 188.992188 115.222656 188.816406 C 114.648438 188.640625 114.082031 188.441406 113.523438 188.210938 C 112.96875 187.980469 112.425781 187.722656 111.894531 187.4375 C 111.363281 187.152344 110.84375 186.84375 110.34375 186.507812 C 109.84375 186.175781 109.359375 185.816406 108.894531 185.433594 C 108.429688 185.050781 107.984375 184.648438 107.558594 184.222656 C 107.132812 183.796875 106.726562 183.351562 106.34375 182.886719 C 105.960938 182.421875 105.601562 181.9375 105.265625 181.4375 C 104.933594 180.9375 104.621094 180.417969 104.339844 179.890625 C 104.054688 179.359375 103.796875 178.8125 103.566406 178.257812 C 103.335938 177.699219 103.132812 177.132812 102.957031 176.558594 C 102.78125 175.980469 102.636719 175.398438 102.515625 174.804688 C 102.398438 174.214844 102.3125 173.621094 102.253906 173.019531 C 102.191406 172.421875 102.164062 171.820312 102.164062 171.21875 C 102.164062 170.613281 102.191406 170.015625 102.253906 169.414062 C 102.3125 168.816406 102.398438 168.21875 102.515625 167.628906 C 102.636719 167.039062 102.78125 166.453125 102.957031 165.878906 C 103.132812 165.300781 103.335938 164.734375 103.566406 164.179688 C 103.796875 163.621094 104.054688 163.078125 104.339844 162.546875 C 104.621094 162.015625 104.933594 161.5 105.265625 161 C 105.601562 160.496094 105.960938 160.015625 106.34375 159.550781 C 106.726562 159.082031 107.132812 158.636719 107.558594 158.210938 C 109.335938 156.441406 111.308594 155.101562 113.578125 154.199219 L 113.578125 88.304688 C 111.390625 87.40625 109.335938 86.078125 107.558594 84.292969 C 106.914062 83.652344 106.324219 82.964844 105.785156 82.238281 C 105.242188 81.507812 104.757812 80.742188 104.332031 79.941406 C 103.90625 79.140625 103.539062 78.316406 103.234375 77.460938 C 102.929688 76.605469 102.6875 75.734375 102.515625 74.84375 C 102.339844 73.953125 102.230469 73.054688 102.1875 72.148438 C 102.144531 71.242188 102.171875 70.335938 102.261719 69.433594 C 102.355469 68.53125 102.511719 67.640625 102.734375 66.757812 C 102.960938 65.878906 103.246094 65.023438 103.597656 64.183594 L 76.371094 36.976562 L 4.523438 108.75 C 3.804688 109.46875 3.164062 110.25 2.597656 111.09375 C 2.035156 111.9375 1.558594 112.828125 1.167969 113.765625 C 0.78125 114.703125 0.488281 115.667969 0.289062 116.664062 C 0.0898438 117.660156 -0.0078125 118.664062 -0.0078125 119.679688 C -0.0078125 120.695312 0.0898438 121.703125 0.289062 122.699219 C 0.488281 123.691406 0.78125 124.660156 1.167969 125.597656 C 1.558594 126.535156 2.035156 127.425781 2.597656 128.269531 C 3.164062 129.113281 3.804688 129.894531 4.523438 130.613281 L 109.3125 235.386719 C 110.03125 236.105469 110.808594 236.746094 111.652344 237.308594 C 112.496094 237.875 113.386719 238.351562 114.324219 238.738281 C 115.261719 239.128906 116.230469 239.421875 117.226562 239.617188 C 118.21875 239.816406 119.226562 239.914062 120.238281 239.914062 C 121.253906 239.914062 122.261719 239.816406 123.253906 239.617188 C 124.25 239.421875 125.214844 239.128906 126.152344 238.738281 C 127.089844 238.351562 127.980469 237.875 128.824219 237.308594 C 129.667969 236.746094 130.449219 236.105469 131.167969 235.386719 L 235.46875 131.25 C 236.1875 130.53125 236.828125 129.75 237.394531 128.90625 C 237.957031 128.0625 238.433594 127.171875 238.824219 126.234375 C 239.210938 125.296875 239.507812 124.332031 239.703125 123.335938 C 239.902344 122.339844 240 121.332031 240 120.320312 C 240 119.304688 239.902344 118.296875 239.703125 117.300781 C 239.507812 116.308594 239.210938 115.339844 238.824219 114.402344 C 238.433594 113.464844 237.957031 112.574219 237.394531 111.730469 C 236.828125 110.886719 236.1875 110.105469 235.46875 109.386719 "/><g clip-rule="nonzero" clip-path="url(#4701fe7b72)"><path style=" stroke:none;fill-rule:nonzero;fill:#f03c2d;fill-opacity:1;" d="M 90.207031 119.957031 L 45.71875 119.957031 C 44.910156 119.957031 44.257812 119.300781 44.257812 118.492188 L 44.257812 109.417969 C 44.257812 108.613281 44.910156 107.957031 45.71875 107.957031 L 90.207031 107.957031 C 91.015625 107.957031 91.671875 108.613281 91.671875 109.417969 L 91.671875 118.492188 C 91.671875 119.300781 91.015625 119.957031 90.207031 119.957031 Z M 90.207031 119.957031 "/></g></g></svg>