<svg xmlns="http://www.w3.org/2000/svg" xmlns:xlink="http://www.w3.org/1999/xlink" width="265" zoomAndPan="magnify" viewBox="0 0 198.75 226.499993" height="302" preserveAspectRatio="xMidYMid meet" version="1.2"><defs><clipPath id="76c21a12a4"><path d="M 0.09375 0 L 197.65625 0 L 197.65625 226 L 0.09375 226 Z M 0.09375 0 "/></clipPath><clipPath id="01ab701543"><path d="M 18.421875 8.84375 L 66 8.84375 L 66 20.816406 L 18.421875 20.816406 Z M 18.421875 8.84375 "/></clipPath></defs><g id="1076c597ed"><g clip-rule="nonzero" clip-path="url(#76c21a12a4)"><path style=" stroke:none;fill-rule:nonzero;fill:#e44d26;fill-opacity:1;" d="M 18.027344 202.910156 L 0.0390625 0.636719 L 197.714844 0.636719 L 179.710938 202.882812 L 98.75 225.371094 Z M 18.027344 202.910156 "/></g><path style=" stroke:none;fill-rule:nonzero;fill:#f16529;fill-opacity:1;" d="M 164.289062 190.003906 L 179.679688 17.175781 L 98.875 17.175781 L 98.875 208.1875 Z M 164.289062 190.003906 "/><path style=" stroke:none;fill-rule:nonzero;fill:#ebebeb;fill-opacity:1;" d="M 98.792969 41.980469 L 36.820312 41.980469 L 43.496094 117.003906 L 98.875 117.003906 L 98.875 92.199219 L 66.132812 92.199219 L 63.867188 66.792969 L 98.875 66.792969 L 98.875 41.980469 Z M 98.875 156.542969 L 98.769531 156.574219 L 71.210938 149.113281 L 69.457031 129.328125 L 44.601562 129.328125 L 48.070312 168.28125 L 98.765625 182.328125 L 98.875 182.292969 Z M 98.875 156.542969 "/><path style=" stroke:none;fill-rule:nonzero;fill:#ffffff;fill-opacity:1;" d="M 98.792969 117.003906 L 129.265625 117.003906 L 126.464844 149.171875 L 98.863281 156.636719 L 98.863281 182.445312 L 149.597656 168.351562 L 156.394531 92.183594 L 98.875 92.183594 Z M 160.191406 48.640625 L 160.78125 41.980469 L 98.777344 41.980469 L 98.777344 66.789062 L 158.550781 66.789062 L 159.042969 61.210938 Z M 160.191406 48.640625 "/><g clip-rule="nonzero" clip-path="url(#01ab701543)"><path style=" stroke:none;fill-rule:nonzero;fill:#e44d27;fill-opacity:1;" d="M 64.316406 20.816406 L 19.925781 20.816406 C 19.121094 20.816406 18.46875 20.164062 18.46875 19.359375 L 18.46875 10.304688 C 18.46875 9.5 19.121094 8.84375 19.925781 8.84375 L 64.316406 8.84375 C 65.125 8.84375 65.777344 9.5 65.777344 10.304688 L 65.777344 19.359375 C 65.777344 20.164062 65.125 20.816406 64.316406 20.816406 Z M 64.316406 20.816406 "/></g></g></svg>