<svg xmlns="http://www.w3.org/2000/svg" xmlns:xlink="http://www.w3.org/1999/xlink" width="230" zoomAndPan="magnify" viewBox="0 0 172.5 239.999995" height="320" preserveAspectRatio="xMidYMid meet" version="1.2"><defs><clipPath id="dd9a6a55cd"><path d="M 0 51 L 172 51 L 172 239.652344 L 0 239.652344 Z M 0 51 "/></clipPath><clipPath id="280ef4dac2"><path d="M 108.835938 188.484375 L 143.238281 188.484375 L 143.238281 197.457031 L 108.835938 197.457031 Z M 108.835938 188.484375 "/></clipPath></defs><g id="b0f7b314f9"><path style=" stroke:none;fill-rule:nonzero;fill:#ffa000;fill-opacity:1;" d="M 113.296875 87.730469 L 89.472656 109.878906 L 67.367188 65.324219 L 78.808594 39.699219 C 81.785156 34.496094 86.425781 34.554688 89.324219 39.699219 Z M 113.296875 87.730469 "/><path style=" stroke:none;fill-rule:nonzero;fill:#f57f17;fill-opacity:1;" d="M 67.367188 65.324219 L 89.472656 109.878906 L 0.441406 192.632812 Z M 67.367188 65.324219 "/><g clip-rule="nonzero" clip-path="url(#dd9a6a55cd)"><path style=" stroke:none;fill-rule:nonzero;fill:#ffca28;fill-opacity:1;" d="M 139.351562 53.878906 C 143.609375 49.792969 148.011719 51.1875 149.132812 56.976562 L 172.308594 191.53125 L 95.492188 237.609375 C 92.8125 239.097656 85.671875 239.734375 85.671875 239.734375 C 85.671875 239.734375 79.171875 238.960938 76.695312 237.503906 L 0.441406 192.632812 Z M 139.351562 53.878906 "/></g><path style=" stroke:none;fill-rule:nonzero;fill:#ffa000;fill-opacity:1;" d="M 67.367188 65.324219 L 0.449219 192.632812 L 30.253906 6.574219 C 31.355469 0.777344 34.65625 0.21875 37.601562 5.332031 Z M 67.367188 65.324219 "/><g clip-rule="nonzero" clip-path="url(#280ef4dac2)"><path style=" stroke:none;fill-rule:nonzero;fill:#ffca27;fill-opacity:1;" d="M 142.117188 197.164062 L 109.933594 197.164062 C 109.347656 197.164062 108.875 196.691406 108.875 196.105469 L 108.875 189.542969 C 108.875 188.957031 109.347656 188.484375 109.933594 188.484375 L 142.117188 188.484375 C 142.703125 188.484375 143.175781 188.957031 143.175781 189.542969 L 143.175781 196.105469 C 143.175781 196.691406 142.703125 197.164062 142.117188 197.164062 Z M 142.117188 197.164062 "/></g></g></svg>