<svg xmlns="http://www.w3.org/2000/svg" xmlns:xlink="http://www.w3.org/1999/xlink" width="299" zoomAndPan="magnify" viewBox="0 0 224.25 224.25" height="299" preserveAspectRatio="xMidYMid meet" version="1.2"><defs><clipPath id="ca923a2998"><path d="M 0 0 L 222 0 L 222 222.753906 L 0 222.753906 Z M 0 0 "/></clipPath><clipPath id="883e6e1677"><path d="M 90.128906 8.835938 L 137.96875 8.835938 L 137.96875 20.792969 L 90.128906 20.792969 Z M 90.128906 8.835938 "/></clipPath></defs><g id="3c670bafd3"><g clip-rule="nonzero" clip-path="url(#ca923a2998)"><path style=" stroke:none;fill-rule:nonzero;fill:#3747d6;fill-opacity:1;" d="M 10.078125 0.503906 C 7.1875 0.503906 4.4375 1.746094 2.523438 3.914062 C 0.609375 6.082031 -0.28125 8.964844 0.078125 11.832031 L 20.238281 173.105469 C 20.65625 176.449219 22.714844 179.363281 25.730469 180.867188 L 106.367188 221.1875 C 109.203125 222.605469 112.542969 222.605469 115.382812 221.1875 L 196.015625 180.867188 C 199.03125 179.363281 201.09375 176.449219 201.511719 173.105469 L 221.667969 11.832031 C 222.027344 8.964844 221.136719 6.082031 219.222656 3.914062 C 217.3125 1.746094 214.558594 0.503906 211.667969 0.503906 Z M 10.078125 0.503906 "/></g><path style=" stroke:none;fill-rule:evenodd;fill:#90caea;fill-opacity:1;" d="M 50.398438 30.742188 L 181.429688 30.742188 C 186.105469 30.742188 190.167969 33.957031 191.238281 38.507812 C 192.3125 43.054688 190.117188 47.746094 185.9375 49.835938 L 113.253906 86.179688 L 171.351562 86.179688 C 174.339844 86.179688 177.175781 87.503906 179.089844 89.800781 C 181.003906 92.09375 181.800781 95.121094 181.265625 98.0625 L 171.1875 153.5 C 170.667969 156.351562 168.945312 158.84375 166.457031 160.339844 L 116.058594 190.578125 C 112.867188 192.492188 108.878906 192.492188 105.6875 190.578125 L 55.292969 160.339844 C 52.757812 158.816406 51.019531 156.265625 50.535156 153.351562 L 45.496094 123.113281 L 65.378906 119.800781 L 69.652344 145.445312 L 110.875 170.179688 L 152.171875 145.402344 L 159.273438 106.335938 L 70.554688 106.335938 C 65.882812 106.335938 61.820312 103.125 60.746094 98.574219 C 59.671875 94.023438 61.867188 89.332031 66.050781 87.242188 L 138.734375 50.902344 L 50.398438 50.902344 Z M 50.398438 30.742188 "/><g clip-rule="nonzero" clip-path="url(#883e6e1677)"><path style=" stroke:none;fill-rule:nonzero;fill:#3747d6;fill-opacity:1;" d="M 135.976562 20.792969 L 91.636719 20.792969 C 90.832031 20.792969 90.175781 20.140625 90.175781 19.335938 L 90.175781 10.292969 C 90.175781 9.488281 90.832031 8.835938 91.636719 8.835938 L 135.976562 8.835938 C 136.78125 8.835938 137.433594 9.488281 137.433594 10.292969 L 137.433594 19.335938 C 137.433594 20.140625 136.78125 20.792969 135.976562 20.792969 Z M 135.976562 20.792969 "/></g></g></svg>