<svg xmlns="http://www.w3.org/2000/svg" xmlns:xlink="http://www.w3.org/1999/xlink" width="345" zoomAndPan="magnify" viewBox="0 0 258.75 215.249992" height="287" preserveAspectRatio="xMidYMid meet" version="1.2"><defs><clipPath id="3757791ab0"><path d="M 2 3 L 257.429688 3 L 257.429688 211 L 2 211 Z M 2 3 "/></clipPath><clipPath id="6fb1ebb0ee"><path d="M 158.367188 54.179688 L 192.746094 54.179688 L 192.746094 63 L 158.367188 63 Z M 158.367188 54.179688 "/></clipPath></defs><g id="797bbf319f"><path style=" stroke:none;fill-rule:nonzero;fill:#000000;fill-opacity:1;" d="M 100.222656 178.359375 L 100.171875 178.304688 Z M 100.222656 178.359375 "/><path style=" stroke:none;fill-rule:nonzero;fill:#000000;fill-opacity:1;" d="M 256.632812 115.78125 C 256.644531 115.855469 256.632812 115.929688 256.644531 115.992188 C 256.652344 116.054688 256.675781 116.117188 256.675781 116.183594 Z M 256.632812 115.78125 "/><path style=" stroke:none;fill-rule:nonzero;fill:#000000;fill-opacity:1;" d="M 245.710938 86.378906 C 245.761719 86.464844 245.804688 86.558594 245.871094 86.65625 C 245.878906 86.664062 245.890625 86.675781 245.890625 86.6875 Z M 245.710938 86.378906 "/><path style=" stroke:none;fill-rule:nonzero;fill:#1976d2;fill-opacity:1;" d="M 169.800781 90.09375 C 169.707031 90.09375 169.632812 90.09375 169.535156 90.09375 C 160.664062 90.09375 152.546875 93.253906 146.289062 98.472656 C 140 103.78125 135.835938 111.269531 135.347656 119.757812 L 135.359375 119.757812 C 134.878906 128.480469 138.386719 136.566406 144.546875 142.582031 C 151.027344 148.753906 159.792969 152.542969 169.449219 152.542969 C 169.566406 152.542969 169.683594 152.542969 169.789062 152.542969 C 169.789062 152.542969 169.800781 152.542969 169.8125 152.542969 C 169.929688 152.542969 170.046875 152.542969 170.164062 152.542969 C 179.820312 152.542969 188.585938 148.753906 195.035156 142.589844 C 201.195312 136.574219 204.703125 128.480469 204.222656 119.746094 C 203.746094 111.269531 199.589844 103.78125 193.300781 98.472656 C 187.128906 93.277344 178.832031 90.09375 169.800781 90.09375 Z M 169.800781 90.09375 "/><g clip-rule="nonzero" clip-path="url(#3757791ab0)"><path style=" stroke:none;fill-rule:nonzero;fill:#ff9800;fill-opacity:1;" d="M 237.117188 180.777344 C 244.5625 172.640625 250.363281 162.847656 253.871094 152.035156 L 254.027344 151.472656 C 256.1875 144.851562 257.429688 137.234375 257.429688 129.328125 C 257.429688 125.710938 257.140625 122.15625 256.652344 118.675781 C 255.039062 107.769531 251.296875 97.976562 245.871094 89.351562 C 240.515625 80.894531 233.992188 73.710938 226.40625 67.84375 L 226.214844 67.703125 L 226.234375 67.703125 L 146.363281 6.464844 C 141.136719 2.453125 132.351562 2.472656 126.601562 6.484375 C 120.792969 10.539062 120.132812 17.253906 125.296875 21.496094 L 125.285156 21.507812 L 158.496094 48.488281 L 57.109375 48.597656 C 48.738281 48.605469 40.695312 54.09375 39.101562 61.03125 C 37.464844 68.085938 43.140625 73.945312 51.851562 73.976562 L 51.851562 73.996094 L 103.167969 73.890625 L 11.226562 144.363281 C 2.585938 150.960938 -0.195312 161.953125 5.242188 168.90625 C 10.769531 175.980469 22.507812 175.992188 31.242188 168.945312 L 81.21875 128.109375 C 81.21875 128.109375 80.484375 133.625 80.546875 136.925781 L 80.527344 136.914062 C 80.589844 140.246094 81.652344 146.699219 83.246094 151.746094 C 86.910156 163.109375 92.703125 172.882812 100.222656 181.054688 C 108.339844 189.933594 118.179688 197.085938 129.226562 202.007812 L 129.78125 202.230469 C 141.0625 207.324219 154.246094 210.292969 168.121094 210.292969 C 168.304688 210.292969 168.484375 210.292969 168.664062 210.292969 C 168.675781 210.292969 168.683594 210.292969 168.695312 210.292969 C 168.738281 210.292969 168.792969 210.292969 168.855469 210.292969 C 182.667969 210.292969 195.777344 207.335938 207.621094 202.050781 C 219.191406 196.839844 229.007812 189.667969 237.050781 180.851562 Z M 219.9375 138.21875 C 217.40625 144.914062 213.6875 150.632812 208.984375 155.375 L 208.960938 155.386719 C 198.65625 165.871094 184.25 171.8125 168.644531 171.832031 C 153.023438 171.875 138.609375 165.976562 128.304688 155.515625 C 123.566406 150.761719 119.824219 145.019531 117.402344 138.632812 L 117.296875 138.304688 C 115.597656 133.730469 114.617188 128.449219 114.617188 122.941406 C 114.617188 114.960938 116.691406 107.472656 120.304688 100.945312 C 123.523438 95.238281 127.601562 90.421875 132.445312 86.496094 L 132.542969 86.421875 C 142.550781 78.273438 155.289062 73.871094 168.621094 73.847656 C 181.953125 73.828125 194.703125 78.199219 204.722656 86.316406 C 209.820312 90.464844 213.964844 95.375 216.960938 100.820312 C 219.925781 106.039062 221.902344 112.191406 222.496094 118.738281 L 222.507812 118.910156 C 222.613281 120.066406 222.675781 121.414062 222.675781 122.773438 C 222.6875 128.203125 221.710938 133.390625 219.9375 138.21875 Z M 219.9375 138.21875 "/></g><path style=" stroke:none;fill-rule:nonzero;fill:#000000;fill-opacity:1;" d="M 208.121094 199.164062 C 207.960938 199.238281 207.792969 199.28125 207.621094 199.355469 C 207.589844 199.367188 207.558594 199.386719 207.527344 199.410156 Z M 208.121094 199.164062 "/><g clip-rule="nonzero" clip-path="url(#6fb1ebb0ee)"><path style=" stroke:none;fill-rule:nonzero;fill:#ff9800;fill-opacity:1;" d="M 191.628906 62.855469 L 159.460938 62.855469 C 158.875 62.855469 158.402344 62.382812 158.402344 61.796875 L 158.402344 55.238281 C 158.402344 54.652344 158.875 54.179688 159.460938 54.179688 L 191.628906 54.179688 C 192.210938 54.179688 192.6875 54.652344 192.6875 55.238281 L 192.6875 61.796875 C 192.6875 62.382812 192.210938 62.855469 191.628906 62.855469 Z M 191.628906 62.855469 "/></g></g></svg>