<svg xmlns="http://www.w3.org/2000/svg" xmlns:xlink="http://www.w3.org/1999/xlink" width="320" zoomAndPan="magnify" viewBox="0 0 240 239.999995" height="320" preserveAspectRatio="xMidYMid meet" version="1.2"><defs><clipPath id="195f8be3e4"><path d="M 34.3125 31.019531 L 82 31.019531 L 82 43.019531 L 34.3125 43.019531 Z M 34.3125 31.019531 "/></clipPath></defs><g id="c5fe146a6c"><rect x="0" width="240" y="0" height="239.999995" style="fill:#007acc;fill-opacity:1;stroke:none;"/><path style=" stroke:none;fill-rule:nonzero;fill:#ffffff;fill-opacity:1;" d="M 53.0625 120.789062 L 52.988281 130.621094 L 84.226562 130.621094 L 84.226562 219.382812 L 106.320312 219.382812 L 106.320312 130.621094 L 137.558594 130.621094 L 137.558594 120.984375 C 137.558594 115.648438 137.445312 111.1875 137.292969 111.074219 C 137.179688 110.925781 118.167969 110.851562 95.117188 110.886719 L 53.175781 111 Z M 53.0625 120.789062 "/><path style=" stroke:none;fill-rule:nonzero;fill:#ffffff;fill-opacity:1;" d="M 193.660156 110.726562 C 199.753906 112.246094 204.402344 114.957031 208.667969 119.371094 C 210.871094 121.734375 214.152344 126.039062 214.414062 127.070312 C 214.492188 127.378906 204.054688 134.382812 197.726562 138.308594 C 197.503906 138.460938 196.59375 137.464844 195.5625 135.945312 C 192.476562 131.445312 189.234375 129.507812 184.285156 129.167969 C 177.007812 128.671875 172.320312 132.476562 172.359375 138.84375 C 172.359375 140.710938 172.632812 141.816406 173.390625 143.335938 C 174.992188 146.652344 177.964844 148.632812 187.292969 152.671875 C 204.476562 160.058594 211.828125 164.933594 216.402344 171.871094 C 221.503906 179.605469 222.648438 191.945312 219.179688 201.121094 C 215.371094 211.105469 205.921875 217.882812 192.628906 220.132812 C 188.511719 220.855469 178.761719 220.742188 174.335938 219.945312 C 164.699219 218.230469 155.558594 213.46875 149.925781 207.226562 C 147.710938 204.789062 143.410156 198.421875 143.671875 197.960938 C 143.792969 197.8125 144.777344 197.203125 145.882812 196.554688 C 146.953125 195.945312 150.992188 193.621094 154.800781 191.410156 L 161.691406 187.414062 L 163.144531 189.542969 C 165.160156 192.628906 169.585938 196.855469 172.246094 198.273438 C 179.90625 202.304688 190.414062 201.730469 195.601562 197.089844 C 197.8125 195.066406 198.722656 192.976562 198.722656 189.890625 C 198.722656 187.105469 198.382812 185.886719 196.929688 183.796875 C 195.066406 181.125 191.257812 178.875 180.441406 174.195312 C 168.054688 168.863281 162.722656 165.542969 157.847656 160.285156 C 155.023438 157.238281 152.363281 152.363281 151.257812 148.285156 C 150.335938 144.898438 150.113281 136.40625 150.835938 132.976562 C 153.394531 121.011719 162.421875 112.667969 175.445312 110.195312 C 179.671875 109.398438 189.507812 109.695312 193.660156 110.726562 Z M 193.660156 110.726562 "/><g clip-rule="nonzero" clip-path="url(#195f8be3e4)"><path style=" stroke:none;fill-rule:nonzero;fill:#007acc;fill-opacity:1;" d="M 80.3125 43.019531 L 35.824219 43.019531 C 35.015625 43.019531 34.363281 42.363281 34.363281 41.554688 L 34.363281 32.484375 C 34.363281 31.675781 35.015625 31.019531 35.824219 31.019531 L 80.3125 31.019531 C 81.121094 31.019531 81.777344 31.675781 81.777344 32.484375 L 81.777344 41.554688 C 81.777344 42.363281 81.121094 43.019531 80.3125 43.019531 Z M 80.3125 43.019531 "/></g></g></svg>