<svg xmlns="http://www.w3.org/2000/svg" xmlns:xlink="http://www.w3.org/1999/xlink" width="325" zoomAndPan="magnify" viewBox="0 0 243.75 239.999995" height="320" preserveAspectRatio="xMidYMid meet" version="1.2"><defs><clipPath id="c991b4be64"><path d="M 0 29 L 211 29 L 211 239.875 L 0 239.875 Z M 0 29 "/></clipPath><clipPath id="e33ca1be9f"><path d="M 141 0.121094 L 242.75 0.121094 L 242.75 102 L 141 102 Z M 141 0.121094 "/></clipPath><clipPath id="fb8ca50028"><path d="M 141 0.121094 L 215 0.121094 L 215 62 L 141 62 Z M 141 0.121094 "/></clipPath><clipPath id="518d23b3db"><path d="M 89.054688 171.40625 L 123.519531 171.40625 L 123.519531 180.394531 L 89.054688 180.394531 Z M 89.054688 171.40625 "/></clipPath></defs><g id="e98292b99a"><g clip-rule="nonzero" clip-path="url(#c991b4be64)"><path style=" stroke:none;fill-rule:nonzero;fill:#2297ef;fill-opacity:1;" d="M 105.15625 29.941406 C 123.148438 78.574219 161.492188 116.917969 210.121094 134.917969 C 161.492188 152.914062 123.15625 191.265625 105.15625 239.898438 C 87.15625 191.265625 48.820312 152.914062 0.191406 134.917969 C 48.820312 116.925781 87.15625 78.574219 105.15625 29.941406 Z M 105.15625 29.941406 "/></g><g clip-rule="nonzero" clip-path="url(#e33ca1be9f)"><path style=" stroke:none;fill-rule:nonzero;fill:#2297ef;fill-opacity:1;" d="M 191.988281 0.121094 C 195.058594 26.667969 215.996094 47.613281 242.535156 50.675781 C 215.996094 53.746094 195.054688 74.6875 191.988281 101.230469 C 188.917969 74.6875 167.984375 53.742188 141.441406 50.675781 C 167.984375 47.613281 188.917969 26.667969 191.988281 0.121094 Z M 191.988281 0.121094 "/></g><path style=" stroke:none;fill-rule:nonzero;fill:#2297ef;fill-opacity:1;" d="M 173.828125 176.394531 C 175.164062 187.964844 184.289062 197.085938 195.855469 198.425781 C 184.289062 199.761719 175.164062 208.886719 173.828125 220.453125 C 172.492188 208.886719 163.371094 199.761719 151.804688 198.425781 C 163.371094 197.085938 172.492188 187.964844 173.828125 176.394531 Z M 173.828125 176.394531 "/><path style=" stroke:none;fill-rule:nonzero;fill:#ffffff;fill-opacity:0.1;" d="M 173.828125 176.394531 C 175.164062 187.964844 184.289062 197.085938 195.855469 198.425781 C 184.289062 199.761719 175.164062 208.886719 173.828125 220.453125 C 172.492188 208.886719 163.371094 199.761719 151.804688 198.425781 C 163.371094 197.085938 172.492188 187.964844 173.828125 176.394531 Z M 173.828125 176.394531 "/><path style=" stroke:none;fill-rule:nonzero;fill:#ffffff;fill-opacity:0.1;" d="M 147.519531 95.257812 C 128.957031 77.089844 114.378906 54.878906 105.15625 29.945312 C 87.15625 78.574219 48.820312 116.925781 0.191406 134.917969 C 15.453125 140.570312 29.703125 148.226562 42.628906 157.570312 C 66.59375 125.632812 104.015625 102.644531 147.519531 95.257812 Z M 147.519531 95.257812 "/><g clip-rule="nonzero" clip-path="url(#fb8ca50028)"><path style=" stroke:none;fill-rule:nonzero;fill:#ffffff;fill-opacity:0.1;" d="M 214.636719 39.546875 C 202.324219 30.308594 193.855469 16.253906 191.988281 0.121094 C 188.917969 26.667969 167.984375 47.613281 141.441406 50.675781 C 151.960938 51.894531 161.589844 55.925781 169.585938 61.992188 C 182.683594 51.605469 197.96875 43.851562 214.636719 39.546875 Z M 214.636719 39.546875 "/></g><path style=" stroke:none;fill-rule:nonzero;fill:#f4efdc;fill-opacity:1;" d="M 111.398438 107.148438 L 93.421875 155.65625 L 105.207031 155.65625 C 105.207031 155.65625 108.179688 147.644531 108.179688 147.644531 L 126.609375 147.644531 C 126.609375 147.644531 129.636719 155.65625 129.636719 155.65625 L 141.441406 155.65625 C 141.441406 155.65625 123.441406 107.148438 123.441406 107.148438 Z M 111.773438 137.875 L 117.46875 122.824219 L 123 137.875 Z M 111.773438 137.875 "/><path style=" stroke:none;fill-rule:nonzero;fill:#f4efdc;fill-opacity:1;" d="M 74.800781 107.148438 L 86.367188 107.148438 L 86.367188 155.65625 L 74.800781 155.65625 Z M 74.800781 107.148438 "/><g clip-rule="nonzero" clip-path="url(#518d23b3db)"><path style=" stroke:none;fill-rule:nonzero;fill:#2297ef;fill-opacity:1;" d="M 122.398438 180.101562 L 90.152344 180.101562 C 89.566406 180.101562 89.089844 179.628906 89.089844 179.042969 L 89.089844 172.464844 C 89.089844 171.878906 89.566406 171.40625 90.152344 171.40625 L 122.398438 171.40625 C 122.984375 171.40625 123.457031 171.878906 123.457031 172.464844 L 123.457031 179.042969 C 123.457031 179.628906 122.984375 180.101562 122.398438 180.101562 Z M 122.398438 180.101562 "/></g></g></svg>