<svg xmlns="http://www.w3.org/2000/svg" xmlns:xlink="http://www.w3.org/1999/xlink" width="320" zoomAndPan="magnify" viewBox="0 0 240 239.999995" height="320" preserveAspectRatio="xMidYMid meet" version="1.2"><defs><clipPath id="8b67bbca86"><path d="M 135.652344 1.738281 L 150.140625 1.738281 L 150.140625 8.230469 L 135.652344 8.230469 Z M 135.652344 1.738281 "/></clipPath></defs><g id="1d8067a478"><path style=" stroke:none;fill-rule:nonzero;fill:#fcfcfd;fill-opacity:1;" d="M 184.082031 240 L 55.917969 240 C 25.085938 240 0 214.914062 0 184.082031 L 0 55.917969 C 0 25.085938 25.085938 0 55.917969 0 L 184.082031 0 C 214.914062 0 240 25.085938 240 55.917969 L 240 184.082031 C 240 214.914062 214.914062 240 184.082031 240 Z M 55.917969 9.25 C 30.183594 9.25 9.25 30.183594 9.25 55.917969 L 9.25 184.082031 C 9.25 209.816406 30.183594 230.75 55.917969 230.75 L 184.082031 230.75 C 209.816406 230.75 230.75 209.816406 230.75 184.082031 L 230.75 55.917969 C 230.75 30.183594 209.816406 9.25 184.082031 9.25 Z M 55.917969 9.25 "/><path style=" stroke:none;fill-rule:nonzero;fill:#fcfcfd;fill-opacity:1;" d="M 120 172.433594 C 88.539062 172.433594 62.941406 146.835938 62.941406 115.375 C 62.941406 83.914062 88.539062 58.320312 120 58.320312 C 151.460938 58.320312 177.058594 83.914062 177.058594 115.375 C 177.058594 146.835938 151.460938 172.433594 120 172.433594 Z M 120 67.566406 C 93.636719 67.566406 72.191406 89.015625 72.191406 115.375 C 72.191406 141.738281 93.636719 163.183594 120 163.183594 C 146.363281 163.183594 167.808594 141.738281 167.808594 115.375 C 167.808594 89.015625 146.363281 67.566406 120 67.566406 Z M 120 67.566406 "/><path style=" stroke:none;fill-rule:nonzero;fill:#fcfcfd;fill-opacity:1;" d="M 94.5 115.375 L 85.25 115.375 C 85.25 96.214844 100.839844 80.628906 120 80.628906 L 120 89.875 C 105.9375 89.875 94.5 101.316406 94.5 115.375 Z M 94.5 115.375 "/><path style=" stroke:none;fill-rule:nonzero;fill:#fcfcfd;fill-opacity:1;" d="M 196.058594 59.617188 C 187.199219 59.617188 179.996094 52.410156 179.996094 43.554688 C 179.996094 34.699219 187.199219 27.496094 196.058594 27.496094 C 204.914062 27.496094 212.117188 34.699219 212.117188 43.554688 C 212.117188 52.410156 204.914062 59.617188 196.058594 59.617188 Z M 196.058594 36.742188 C 192.300781 36.742188 189.246094 39.800781 189.246094 43.554688 C 189.246094 47.3125 192.300781 50.367188 196.058594 50.367188 C 199.8125 50.367188 202.867188 47.3125 202.867188 43.554688 C 202.867188 39.800781 199.8125 36.742188 196.058594 36.742188 Z M 196.058594 36.742188 "/><g clip-rule="nonzero" clip-path="url(#8b67bbca86)"><path style=" stroke:none;fill-rule:nonzero;fill:#fcfcfd;fill-opacity:1;" d="M 135.652344 1.738281 L 150.152344 1.738281 L 150.152344 8.230469 L 135.652344 8.230469 Z M 135.652344 1.738281 "/></g></g></svg>