<svg xmlns="http://www.w3.org/2000/svg" xmlns:xlink="http://www.w3.org/1999/xlink" width="320" zoomAndPan="magnify" viewBox="0 0 240 239.999995" height="320" preserveAspectRatio="xMidYMid meet" version="1.2"><defs><clipPath id="f5e9a5104a"><path d="M 122.695312 1.738281 L 137.183594 1.738281 L 137.183594 11.710938 L 122.695312 11.710938 Z M 122.695312 1.738281 "/></clipPath></defs><g id="0516da0329"><path style=" stroke:none;fill-rule:nonzero;fill:#fcfcfd;fill-opacity:1;" d="M 42.601562 0 L 197.257812 0 C 209.070312 0 219.753906 4.78125 227.488281 12.511719 C 235.21875 20.246094 240 30.929688 240 42.601562 L 240 197.257812 C 240 209.070312 235.21875 219.753906 227.488281 227.488281 C 219.753906 235.21875 209.070312 240 197.257812 240 L 42.601562 240 C 30.929688 240 20.246094 235.21875 12.511719 227.488281 C 4.78125 219.753906 0 209.070312 0 197.257812 L 0 42.601562 C 0 30.929688 4.78125 20.246094 12.511719 12.511719 C 20.246094 4.78125 30.929688 0 42.601562 0 Z M 197.257812 12.511719 L 42.601562 12.511719 C 34.304688 12.511719 26.855469 15.886719 21.371094 21.371094 C 15.886719 26.855469 12.511719 34.304688 12.511719 42.601562 L 12.511719 197.257812 C 12.511719 205.554688 15.886719 213.144531 21.371094 218.628906 C 26.855469 223.972656 34.304688 227.488281 42.601562 227.488281 L 197.257812 227.488281 C 205.554688 227.488281 213.144531 223.972656 218.628906 218.628906 C 223.972656 213.144531 227.488281 205.554688 227.488281 197.257812 L 227.488281 42.601562 C 227.488281 34.304688 223.972656 26.855469 218.628906 21.371094 C 213.144531 15.886719 205.554688 12.511719 197.257812 12.511719 Z M 197.257812 12.511719 "/><path style=" stroke:none;fill-rule:nonzero;fill:#fcfcfd;fill-opacity:1;" d="M 43.867188 83.234375 L 67.066406 83.234375 C 69.738281 83.234375 72.125 84.21875 73.8125 85.90625 C 75.640625 87.59375 76.90625 89.980469 76.90625 92.792969 L 76.90625 200.351562 C 76.90625 203.023438 75.640625 205.554688 73.8125 207.242188 C 72.125 208.929688 69.738281 209.910156 67.066406 209.910156 L 43.867188 209.910156 C 41.195312 209.910156 38.804688 208.929688 37.117188 207.242188 C 35.148438 205.554688 34.023438 203.023438 34.023438 200.351562 L 34.023438 92.792969 C 34.023438 89.980469 35.148438 87.59375 37.117188 85.90625 C 38.804688 84.21875 41.195312 83.234375 43.867188 83.234375 Z M 64.394531 95.746094 L 46.539062 95.746094 L 46.539062 197.398438 L 64.394531 197.398438 Z M 64.394531 95.746094 "/><path style=" stroke:none;fill-rule:nonzero;fill:#fcfcfd;fill-opacity:1;" d="M 102.496094 82.953125 L 125.695312 82.953125 C 128.367188 82.953125 130.753906 84.078125 132.441406 85.625 C 134.410156 87.453125 135.535156 89.84375 135.535156 92.511719 L 135.535156 93.355469 C 140.597656 89.980469 146.363281 87.453125 152.265625 86.046875 C 160.421875 84.078125 169 83.9375 176.871094 85.765625 C 184.886719 87.734375 192.335938 91.949219 197.539062 98.558594 C 202.742188 104.886719 205.835938 113.460938 205.835938 124.148438 L 205.835938 200.070312 C 205.835938 202.742188 204.710938 205.132812 202.882812 206.960938 C 201.195312 208.507812 198.804688 209.632812 196.132812 209.632812 L 172.792969 209.632812 C 170.261719 209.632812 167.875 208.507812 166.046875 206.960938 C 164.21875 205.132812 163.09375 202.742188 163.09375 200.070312 L 163.09375 140.035156 C 163.09375 134.410156 159.859375 130.894531 155.78125 129.351562 C 153.953125 128.648438 151.84375 128.367188 149.878906 128.367188 C 147.769531 128.367188 145.660156 128.789062 143.691406 129.492188 C 139.050781 131.175781 135.535156 134.691406 135.535156 140.035156 L 135.535156 200.351562 C 135.535156 203.023438 134.410156 205.554688 132.441406 207.242188 C 130.753906 208.929688 128.367188 209.910156 125.695312 209.910156 L 102.496094 209.910156 C 99.824219 209.910156 97.433594 208.929688 95.746094 207.242188 C 93.917969 205.554688 92.652344 203.023438 92.652344 200.351562 L 92.652344 92.511719 C 92.652344 89.84375 93.917969 87.453125 95.746094 85.625 C 97.433594 84.078125 99.824219 82.953125 102.496094 82.953125 Z M 123.023438 95.464844 L 105.167969 95.464844 L 105.167969 197.398438 L 123.023438 197.398438 L 123.023438 140.035156 C 123.023438 128.648438 130.191406 121.054688 139.472656 117.679688 C 142.707031 116.554688 146.222656 115.992188 149.738281 115.851562 C 153.25 115.851562 156.765625 116.414062 160.140625 117.679688 C 168.859375 120.914062 175.605469 128.226562 175.605469 140.035156 L 175.605469 197.117188 L 193.320312 197.117188 L 193.320312 124.148438 C 193.320312 116.554688 191.210938 110.648438 187.839844 106.433594 C 184.324219 102.074219 179.402344 99.261719 173.917969 97.855469 C 168.015625 96.449219 161.546875 96.589844 155.359375 98.136719 C 146.925781 100.246094 139.332031 104.746094 134.410156 111.492188 C 133.285156 113.179688 131.457031 114.164062 129.210938 114.164062 C 125.835938 114.164062 123.023438 111.351562 123.023438 107.980469 Z M 123.023438 95.464844 "/><path style=" stroke:none;fill-rule:nonzero;fill:#fcfcfd;fill-opacity:1;" d="M 55.394531 29.949219 C 61.722656 29.949219 67.488281 32.617188 71.5625 36.695312 C 75.640625 40.773438 78.171875 46.539062 78.171875 52.722656 C 78.171875 59.050781 75.640625 64.675781 71.5625 68.894531 C 67.488281 72.96875 61.722656 75.5 55.394531 75.5 C 49.210938 75.5 43.445312 72.96875 39.367188 68.894531 C 35.289062 64.675781 32.757812 59.050781 32.757812 52.722656 C 32.757812 46.539062 35.289062 40.773438 39.367188 36.695312 C 43.445312 32.617188 49.210938 29.949219 55.394531 29.949219 Z M 62.707031 45.554688 C 60.878906 43.726562 58.347656 42.601562 55.394531 42.601562 C 52.582031 42.601562 50.050781 43.726562 48.226562 45.554688 C 46.398438 47.382812 45.273438 49.914062 45.273438 52.722656 C 45.273438 55.535156 46.398438 58.207031 48.226562 60.035156 C 50.050781 61.863281 52.582031 62.988281 55.394531 62.988281 C 58.347656 62.988281 60.878906 61.863281 62.707031 60.035156 C 64.535156 58.207031 65.660156 55.535156 65.660156 52.722656 C 65.660156 49.914062 64.535156 47.382812 62.707031 45.554688 Z M 62.707031 45.554688 "/><g clip-rule="nonzero" clip-path="url(#f5e9a5104a)"><path style=" stroke:none;fill-rule:nonzero;fill:#fcfcfd;fill-opacity:1;" d="M 122.695312 1.738281 L 137.1875 1.738281 L 137.1875 11.710938 L 122.695312 11.710938 Z M 122.695312 1.738281 "/></g></g></svg>