<svg xmlns="http://www.w3.org/2000/svg" xmlns:xlink="http://www.w3.org/1999/xlink" width="320" zoomAndPan="magnify" viewBox="0 0 240 239.999995" height="320" preserveAspectRatio="xMidYMid meet" version="1.2"><defs><clipPath id="a6d4cdb26f"><path d="M 0 0 L 239.25 0 L 239.25 239 L 0 239 Z M 0 0 "/></clipPath><clipPath id="1fbf4fd9e4"><path d="M 36.757812 195.378906 L 51.378906 195.378906 L 51.378906 210 L 36.757812 210 Z M 36.757812 195.378906 "/></clipPath><clipPath id="7ad40c7401"><path d="M 44.070312 195.378906 C 46.007812 195.378906 47.867188 196.148438 49.238281 197.519531 C 50.609375 198.890625 51.378906 200.75 51.378906 202.691406 C 51.378906 204.628906 50.609375 206.488281 49.238281 207.859375 C 47.867188 209.230469 46.007812 210 44.070312 210 C 42.128906 210 40.269531 209.230469 38.898438 207.859375 C 37.527344 206.488281 36.757812 204.628906 36.757812 202.691406 C 36.757812 200.75 37.527344 198.890625 38.898438 197.519531 C 40.269531 196.148438 42.128906 195.378906 44.070312 195.378906 Z M 44.070312 195.378906 "/></clipPath></defs><g id="5097f5b2d3"><g clip-rule="nonzero" clip-path="url(#a6d4cdb26f)"><path style=" stroke:none;fill-rule:nonzero;fill:#fcfcfd;fill-opacity:1;" d="M 119.542969 0.21875 C 53.109375 0.441406 0.0117188 54.457031 0.878906 120.886719 C 0.957031 127.574219 1.597656 134.207031 2.800781 140.785156 C 4 147.363281 5.746094 153.792969 8.035156 160.078125 C 10.324219 166.359375 13.125 172.40625 16.4375 178.214844 C 19.75 184.027344 23.523438 189.515625 27.765625 194.6875 C 28.433594 195.503906 28.96875 196.40625 29.367188 197.386719 C 29.765625 198.367188 30.011719 199.382812 30.101562 200.4375 C 30.195312 201.488281 30.128906 202.535156 29.90625 203.566406 C 29.6875 204.601562 29.316406 205.582031 28.800781 206.503906 L 18.542969 224.886719 C 15.699219 229.984375 20.332031 236.007812 25.988281 234.566406 L 60.730469 225.722656 C 61.941406 225.414062 63.171875 225.324219 64.414062 225.453125 C 65.65625 225.578125 66.839844 225.917969 67.964844 226.464844 C 75.648438 230.195312 83.640625 233.066406 91.945312 235.070312 C 100.246094 237.074219 108.667969 238.167969 117.207031 238.351562 C 184 239.859375 238.824219 186.488281 239.03125 119.679688 C 239.238281 53.601562 185.621094 -0.00390625 119.542969 0.21875 Z M 119.949219 223.707031 C 118.242188 223.707031 116.535156 223.664062 114.828125 223.582031 C 113.121094 223.5 111.417969 223.371094 109.71875 223.207031 C 108.015625 223.039062 106.320312 222.828125 104.632812 222.578125 C 102.941406 222.328125 101.257812 222.035156 99.582031 221.703125 C 97.90625 221.367188 96.238281 220.996094 94.582031 220.578125 C 92.925781 220.164062 91.277344 219.707031 89.644531 219.210938 C 88.007812 218.714844 86.386719 218.179688 84.777344 217.605469 C 83.167969 217.03125 81.574219 216.414062 79.996094 215.761719 C 78.417969 215.105469 76.855469 214.414062 75.3125 213.683594 C 73.765625 212.953125 72.242188 212.183594 70.734375 211.378906 C 69.226562 210.574219 67.742188 209.734375 66.273438 208.855469 C 64.808594 207.976562 63.367188 207.0625 61.945312 206.113281 C 60.523438 205.164062 59.128906 204.179688 57.753906 203.160156 C 56.382812 202.144531 55.035156 201.09375 53.714844 200.007812 C 52.394531 198.925781 51.101562 197.808594 49.835938 196.660156 C 48.570312 195.515625 47.332031 194.335938 46.125 193.128906 C 44.914062 191.917969 43.738281 190.683594 42.589844 189.417969 C 41.441406 188.152344 40.328125 186.855469 39.242188 185.535156 C 38.160156 184.214844 37.109375 182.867188 36.089844 181.496094 C 35.070312 180.125 34.089844 178.726562 33.140625 177.304688 C 32.191406 175.886719 31.277344 174.441406 30.398438 172.976562 C 29.519531 171.511719 28.675781 170.023438 27.871094 168.519531 C 27.066406 167.011719 26.296875 165.484375 25.566406 163.941406 C 24.835938 162.394531 24.144531 160.832031 23.492188 159.253906 C 22.835938 157.675781 22.222656 156.082031 21.644531 154.472656 C 21.070312 152.863281 20.535156 151.242188 20.039062 149.609375 C 19.542969 147.972656 19.085938 146.328125 18.671875 144.667969 C 18.257812 143.011719 17.882812 141.34375 17.550781 139.667969 C 17.214844 137.992188 16.921875 136.308594 16.671875 134.621094 C 16.421875 132.929688 16.214844 131.234375 16.046875 129.535156 C 15.878906 127.832031 15.753906 126.128906 15.667969 124.421875 C 15.585938 122.714844 15.542969 121.007812 15.542969 119.300781 C 15.542969 61.636719 62.289062 14.890625 119.953125 14.890625 C 177.390625 14.890625 223.996094 61.273438 224.355469 118.628906 C 224.71875 176.175781 177.5 223.707031 119.949219 223.707031 Z M 119.949219 223.707031 "/></g><path style=" stroke:none;fill-rule:nonzero;fill:#fcfcfd;fill-opacity:1;" d="M 101.289062 68.539062 L 101.339844 68.636719 L 107.566406 80.984375 C 107.902344 81.648438 108.179688 82.335938 108.40625 83.046875 C 108.628906 83.753906 108.792969 84.476562 108.902344 85.214844 C 109.007812 85.949219 109.058594 86.691406 109.042969 87.433594 C 109.03125 88.175781 108.960938 88.914062 108.832031 89.648438 C 108.699219 90.378906 108.511719 91.097656 108.261719 91.796875 C 108.015625 92.5 107.714844 93.179688 107.359375 93.832031 C 107.003906 94.484375 106.597656 95.105469 106.140625 95.691406 C 105.683594 96.28125 105.183594 96.828125 104.640625 97.332031 C 104.097656 97.835938 103.601562 98.378906 103.144531 98.964844 C 102.691406 99.546875 102.285156 100.160156 101.929688 100.808594 C 101.574219 101.457031 101.273438 102.132812 101.023438 102.828125 C 100.777344 103.523438 100.585938 104.238281 100.453125 104.964844 C 100.320312 105.691406 100.246094 106.425781 100.230469 107.164062 C 100.214844 107.902344 100.257812 108.640625 100.359375 109.371094 C 100.464844 110.105469 100.625 110.824219 100.84375 111.53125 C 101.0625 112.238281 101.335938 112.921875 101.664062 113.582031 C 105.402344 121.089844 111.878906 131.4375 121.761719 138.902344 C 122.3125 139.320312 122.890625 139.695312 123.5 140.027344 C 124.105469 140.359375 124.734375 140.644531 125.382812 140.882812 C 126.03125 141.117188 126.695312 141.308594 127.375 141.445312 C 128.050781 141.582031 128.734375 141.671875 129.425781 141.707031 C 130.117188 141.742188 130.804688 141.726562 131.492188 141.660156 C 132.183594 141.59375 132.863281 141.476562 133.53125 141.308594 C 134.203125 141.140625 134.855469 140.921875 135.496094 140.65625 C 136.132812 140.386719 136.746094 140.074219 137.339844 139.71875 L 141.347656 137.277344 C 142.25 136.730469 143.199219 136.289062 144.199219 135.960938 C 145.199219 135.628906 146.222656 135.417969 147.269531 135.320312 C 148.316406 135.222656 149.363281 135.246094 150.40625 135.386719 C 151.449219 135.53125 152.464844 135.789062 153.449219 136.160156 L 169.386719 142.222656 C 170.238281 142.546875 171.046875 142.949219 171.816406 143.429688 C 172.585938 143.914062 173.300781 144.464844 173.960938 145.085938 C 174.621094 145.710938 175.214844 146.390625 175.742188 147.132812 C 176.269531 147.871094 176.71875 148.65625 177.089844 149.484375 C 177.460938 150.3125 177.75 151.167969 177.953125 152.054688 C 178.15625 152.9375 178.269531 153.835938 178.296875 154.742188 C 178.324219 155.652344 178.261719 156.550781 178.109375 157.449219 C 177.960938 158.34375 177.722656 159.214844 177.402344 160.0625 C 177.214844 160.550781 177 161.027344 176.761719 161.488281 L 172.347656 170.050781 C 171.988281 170.742188 171.574219 171.402344 171.105469 172.023438 C 170.636719 172.644531 170.121094 173.226562 169.554688 173.761719 C 168.988281 174.296875 168.378906 174.78125 167.730469 175.210938 C 167.082031 175.644531 166.402344 176.019531 165.691406 176.335938 C 164.980469 176.65625 164.246094 176.910156 163.492188 177.105469 C 162.738281 177.296875 161.972656 177.425781 161.195312 177.492188 C 160.417969 177.554688 159.640625 177.554688 158.867188 177.488281 C 158.089844 177.421875 157.324219 177.289062 156.570312 177.09375 C 131.535156 170.617188 71.867188 148.101562 67.0625 80.023438 C 66.964844 78.671875 67.066406 77.332031 67.363281 76.011719 C 67.660156 74.691406 68.140625 73.441406 68.804688 72.257812 C 69.46875 71.078125 70.289062 70.019531 71.265625 69.078125 C 72.238281 68.140625 73.332031 67.359375 74.535156 66.738281 L 82.664062 62.5625 C 83.472656 62.148438 84.3125 61.816406 85.1875 61.566406 C 86.058594 61.316406 86.949219 61.152344 87.855469 61.078125 C 88.757812 61.003906 89.664062 61.019531 90.566406 61.121094 C 91.46875 61.226562 92.351562 61.417969 93.214844 61.695312 C 94.082031 61.972656 94.910156 62.332031 95.703125 62.769531 C 96.496094 63.210938 97.242188 63.726562 97.933594 64.3125 C 98.625 64.902344 99.253906 65.550781 99.820312 66.261719 C 100.386719 66.972656 100.875 67.730469 101.289062 68.539062 Z M 101.289062 68.539062 "/><g clip-rule="nonzero" clip-path="url(#1fbf4fd9e4)"><g clip-rule="nonzero" clip-path="url(#7ad40c7401)"><path style=" stroke:none;fill-rule:nonzero;fill:#fcfcfd;fill-opacity:1;" d="M 36.757812 195.378906 L 51.378906 195.378906 L 51.378906 210 L 36.757812 210 Z M 36.757812 195.378906 "/></g></g></g></svg>